G04 #@! TF.GenerationSoftware,KiCad,Pcbnew,9.0.0-9.0.0-2~ubuntu22.04.1*
G04 #@! TF.CreationDate,2025-03-25T14:39:49+01:00*
G04 #@! TF.ProjectId,test_hard,74657374-5f68-4617-9264-2e6b69636164,rev?*
G04 #@! TF.SameCoordinates,Original*
G04 #@! TF.FileFunction,Copper,L1,Top*
G04 #@! TF.FilePolarity,Positive*
%FSLAX46Y46*%
G04 Gerber Fmt 4.6, Leading zero omitted, Abs format (unit mm)*
G04 Created by KiCad (PCBNEW 9.0.0-9.0.0-2~ubuntu22.04.1) date 2025-03-25 14:39:49*
%MOMM*%
%LPD*%
G01*
G04 APERTURE LIST*
G04 Aperture macros list*
%AMRoundRect*
0 Rectangle with rounded corners*
0 $1 Rounding radius*
0 $2 $3 $4 $5 $6 $7 $8 $9 X,Y pos of 4 corners*
0 Add a 4 corners polygon primitive as box body*
4,1,4,$2,$3,$4,$5,$6,$7,$8,$9,$2,$3,0*
0 Add four circle primitives for the rounded corners*
1,1,$1+$1,$2,$3*
1,1,$1+$1,$4,$5*
1,1,$1+$1,$6,$7*
1,1,$1+$1,$8,$9*
0 Add four rect primitives between the rounded corners*
20,1,$1+$1,$2,$3,$4,$5,0*
20,1,$1+$1,$4,$5,$6,$7,0*
20,1,$1+$1,$6,$7,$8,$9,0*
20,1,$1+$1,$8,$9,$2,$3,0*%
G04 Aperture macros list end*
G04 #@! TA.AperFunction,SMDPad,CuDef*
%ADD10RoundRect,0.237500X-0.237500X0.300000X-0.237500X-0.300000X0.237500X-0.300000X0.237500X0.300000X0*%
G04 #@! TD*
G04 #@! TA.AperFunction,SMDPad,CuDef*
%ADD11RoundRect,0.237500X0.250000X0.237500X-0.250000X0.237500X-0.250000X-0.237500X0.250000X-0.237500X0*%
G04 #@! TD*
G04 #@! TA.AperFunction,SMDPad,CuDef*
%ADD12RoundRect,0.237500X0.300000X0.237500X-0.300000X0.237500X-0.300000X-0.237500X0.300000X-0.237500X0*%
G04 #@! TD*
G04 #@! TA.AperFunction,SMDPad,CuDef*
%ADD13RoundRect,0.237500X-0.250000X-0.237500X0.250000X-0.237500X0.250000X0.237500X-0.250000X0.237500X0*%
G04 #@! TD*
G04 #@! TA.AperFunction,SMDPad,CuDef*
%ADD14RoundRect,0.237500X0.237500X-0.300000X0.237500X0.300000X-0.237500X0.300000X-0.237500X-0.300000X0*%
G04 #@! TD*
G04 #@! TA.AperFunction,SMDPad,CuDef*
%ADD15RoundRect,0.237500X-0.300000X-0.237500X0.300000X-0.237500X0.300000X0.237500X-0.300000X0.237500X0*%
G04 #@! TD*
G04 #@! TA.AperFunction,SMDPad,CuDef*
%ADD16R,0.300000X1.450000*%
G04 #@! TD*
G04 #@! TA.AperFunction,SMDPad,CuDef*
%ADD17R,1.450000X0.300000*%
G04 #@! TD*
G04 #@! TA.AperFunction,ComponentPad*
%ADD18R,1.700000X1.700000*%
G04 #@! TD*
G04 #@! TA.AperFunction,ComponentPad*
%ADD19O,1.700000X1.700000*%
G04 #@! TD*
G04 #@! TA.AperFunction,SMDPad,CuDef*
%ADD20R,4.500000X2.000000*%
G04 #@! TD*
G04 #@! TA.AperFunction,SMDPad,CuDef*
%ADD21R,2.000000X4.500000*%
G04 #@! TD*
G04 #@! TA.AperFunction,ComponentPad*
%ADD22RoundRect,0.250000X-0.550000X-0.550000X0.550000X-0.550000X0.550000X0.550000X-0.550000X0.550000X0*%
G04 #@! TD*
G04 #@! TA.AperFunction,SMDPad,CuDef*
%ADD23RoundRect,0.237500X-0.344715X0.008839X0.008839X-0.344715X0.344715X-0.008839X-0.008839X0.344715X0*%
G04 #@! TD*
G04 #@! TA.AperFunction,ComponentPad*
%ADD24C,1.600000*%
G04 #@! TD*
G04 #@! TA.AperFunction,SMDPad,CuDef*
%ADD25RoundRect,0.237500X-0.237500X0.250000X-0.237500X-0.250000X0.237500X-0.250000X0.237500X0.250000X0*%
G04 #@! TD*
G04 #@! TA.AperFunction,SMDPad,CuDef*
%ADD26RoundRect,0.237500X0.237500X-0.250000X0.237500X0.250000X-0.237500X0.250000X-0.237500X-0.250000X0*%
G04 #@! TD*
G04 #@! TA.AperFunction,ComponentPad*
%ADD27R,3.000000X3.000000*%
G04 #@! TD*
G04 #@! TA.AperFunction,ComponentPad*
%ADD28C,3.000000*%
G04 #@! TD*
G04 #@! TA.AperFunction,SMDPad,CuDef*
%ADD29RoundRect,0.150000X-0.825000X-0.150000X0.825000X-0.150000X0.825000X0.150000X-0.825000X0.150000X0*%
G04 #@! TD*
G04 #@! TA.AperFunction,ViaPad*
%ADD30C,0.600000*%
G04 #@! TD*
G04 #@! TA.AperFunction,ViaPad*
%ADD31C,0.800000*%
G04 #@! TD*
G04 #@! TA.AperFunction,Conductor*
%ADD32C,0.400000*%
G04 #@! TD*
G04 #@! TA.AperFunction,Conductor*
%ADD33C,0.200000*%
G04 #@! TD*
G04 #@! TA.AperFunction,Conductor*
%ADD34C,0.600000*%
G04 #@! TD*
G04 APERTURE END LIST*
D10*
G04 #@! TO.P,C9,1*
G04 #@! TO.N,GND*
X143150000Y-79600000D03*
G04 #@! TO.P,C9,2*
G04 #@! TO.N,/ADC/D2P*
X143150000Y-81325000D03*
G04 #@! TD*
D11*
G04 #@! TO.P,R2,1*
G04 #@! TO.N,Net-(IC1-DOUT{slash}~{DRDY})*
X133312500Y-90000000D03*
G04 #@! TO.P,R2,2*
G04 #@! TO.N,/ADC/SPI.MISO*
X131487500Y-90000000D03*
G04 #@! TD*
D10*
G04 #@! TO.P,C6,1*
G04 #@! TO.N,GND*
X139150000Y-79600000D03*
G04 #@! TO.P,C6,2*
G04 #@! TO.N,/ADC/D1P*
X139150000Y-81325000D03*
G04 #@! TD*
D12*
G04 #@! TO.P,C14,1*
G04 #@! TO.N,Net-(U3-Rs)*
X140687500Y-95950000D03*
G04 #@! TO.P,C14,2*
G04 #@! TO.N,GND*
X138962500Y-95950000D03*
G04 #@! TD*
D13*
G04 #@! TO.P,R17,1*
G04 #@! TO.N,/ADC/D1N*
X136325000Y-77775000D03*
G04 #@! TO.P,R17,2*
G04 #@! TO.N,/ADC/D1P*
X138150000Y-77775000D03*
G04 #@! TD*
D14*
G04 #@! TO.P,C15,1*
G04 #@! TO.N,+3V3*
X133325000Y-100062500D03*
G04 #@! TO.P,C15,2*
G04 #@! TO.N,GND*
X133325000Y-98337500D03*
G04 #@! TD*
D13*
G04 #@! TO.P,R7,1*
G04 #@! TO.N,/START*
X131487500Y-83600000D03*
G04 #@! TO.P,R7,2*
G04 #@! TO.N,Net-(IC1-START{slash}SYNC)*
X133312500Y-83600000D03*
G04 #@! TD*
D14*
G04 #@! TO.P,C8,1*
G04 #@! TO.N,/ADC/D2N*
X140950000Y-81325000D03*
G04 #@! TO.P,C8,2*
G04 #@! TO.N,GND*
X140950000Y-79600000D03*
G04 #@! TD*
D15*
G04 #@! TO.P,C4,1*
G04 #@! TO.N,/ADC/D1N*
X137487500Y-83000000D03*
G04 #@! TO.P,C4,2*
G04 #@! TO.N,/ADC/D1P*
X139212500Y-83000000D03*
G04 #@! TD*
D11*
G04 #@! TO.P,R4,1*
G04 #@! TO.N,Net-(IC1-DIN)*
X133312500Y-86800000D03*
G04 #@! TO.P,R4,2*
G04 #@! TO.N,/ADC/SPI.MOSI*
X131487500Y-86800000D03*
G04 #@! TD*
D15*
G04 #@! TO.P,C7,1*
G04 #@! TO.N,/ADC/D2N*
X140950000Y-83000000D03*
G04 #@! TO.P,C7,2*
G04 #@! TO.N,/ADC/D2P*
X142675000Y-83000000D03*
G04 #@! TD*
D14*
G04 #@! TO.P,C12,1*
G04 #@! TO.N,GND*
X145950000Y-93662500D03*
G04 #@! TO.P,C12,2*
G04 #@! TO.N,/ADC/AVDD*
X145950000Y-91937500D03*
G04 #@! TD*
D16*
G04 #@! TO.P,IC1,1,AINCOM*
G04 #@! TO.N,/ADC/ACOM*
X142350000Y-85150000D03*
G04 #@! TO.P,IC1,2,AIN5*
G04 #@! TO.N,/ADC/GP2*
X141850000Y-85150000D03*
G04 #@! TO.P,IC1,3,AIN4*
G04 #@! TO.N,/ADC/GP1*
X141350000Y-85150000D03*
G04 #@! TO.P,IC1,4,AIN3*
G04 #@! TO.N,/ADC/D2P*
X140850000Y-85150000D03*
G04 #@! TO.P,IC1,5,AIN2*
G04 #@! TO.N,/ADC/D2N*
X140350000Y-85150000D03*
G04 #@! TO.P,IC1,6,AIN1*
G04 #@! TO.N,/ADC/D1P*
X139850000Y-85150000D03*
G04 #@! TO.P,IC1,7,AIN0*
G04 #@! TO.N,/ADC/D1N*
X139350000Y-85150000D03*
G04 #@! TO.P,IC1,8,START/SYNC*
G04 #@! TO.N,Net-(IC1-START{slash}SYNC)*
X138850000Y-85150000D03*
D17*
G04 #@! TO.P,IC1,9,~{CS}*
G04 #@! TO.N,Net-(IC1-~{CS})*
X137375000Y-86625000D03*
G04 #@! TO.P,IC1,10,DIN*
G04 #@! TO.N,Net-(IC1-DIN)*
X137375000Y-87125000D03*
G04 #@! TO.P,IC1,11,SCLK*
G04 #@! TO.N,Net-(IC1-SCLK)*
X137375000Y-87625000D03*
G04 #@! TO.P,IC1,12,DOUT/~{DRDY}*
G04 #@! TO.N,Net-(IC1-DOUT{slash}~{DRDY})*
X137375000Y-88125000D03*
G04 #@! TO.P,IC1,13,~{DRDY}*
G04 #@! TO.N,Net-(IC1-~{DRDY})*
X137375000Y-88625000D03*
G04 #@! TO.P,IC1,14,DGND*
G04 #@! TO.N,GND*
X137375000Y-89125000D03*
G04 #@! TO.P,IC1,15,IOVDD*
G04 #@! TO.N,+3V3*
X137375000Y-89625000D03*
G04 #@! TO.P,IC1,16,DVDD*
X137375000Y-90125000D03*
D16*
G04 #@! TO.P,IC1,17,CLK*
G04 #@! TO.N,unconnected-(IC1-CLK-Pad17)*
X138850000Y-91600000D03*
G04 #@! TO.P,IC1,18,~{RESET}*
G04 #@! TO.N,Net-(IC1-~{RESET})*
X139350000Y-91600000D03*
G04 #@! TO.P,IC1,19,GPIO3/AIN11*
G04 #@! TO.N,unconnected-(IC1-GPIO3{slash}AIN11-Pad19)*
X139850000Y-91600000D03*
G04 #@! TO.P,IC1,20,GPIO2/AIN10*
G04 #@! TO.N,unconnected-(IC1-GPIO2{slash}AIN10-Pad20)*
X140350000Y-91600000D03*
G04 #@! TO.P,IC1,21,GPIO1/AIN9*
G04 #@! TO.N,unconnected-(IC1-GPIO1{slash}AIN9-Pad21)*
X140850000Y-91600000D03*
G04 #@! TO.P,IC1,22,GPIO0/AIN8*
G04 #@! TO.N,unconnected-(IC1-GPIO0{slash}AIN8-Pad22)*
X141350000Y-91600000D03*
G04 #@! TO.P,IC1,23,REFOUT*
G04 #@! TO.N,/ADC/REFOUT*
X141850000Y-91600000D03*
G04 #@! TO.P,IC1,24,REFCOM*
G04 #@! TO.N,GND*
X142350000Y-91600000D03*
D17*
G04 #@! TO.P,IC1,25,NC*
G04 #@! TO.N,unconnected-(IC1-NC-Pad25)*
X143825000Y-90125000D03*
G04 #@! TO.P,IC1,26,AVDD*
G04 #@! TO.N,/ADC/AVDD*
X143825000Y-89625000D03*
G04 #@! TO.P,IC1,27,AVSS_1*
G04 #@! TO.N,GND*
X143825000Y-89125000D03*
G04 #@! TO.P,IC1,28,AVSS_2*
X143825000Y-88625000D03*
G04 #@! TO.P,IC1,29,REFN0*
X143825000Y-88125000D03*
G04 #@! TO.P,IC1,30,REFP0*
G04 #@! TO.N,/ADC/REFP*
X143825000Y-87625000D03*
G04 #@! TO.P,IC1,31,REFN1/AIN7*
G04 #@! TO.N,unconnected-(IC1-REFN1{slash}AIN7-Pad31)*
X143825000Y-87125000D03*
G04 #@! TO.P,IC1,32,REFP1/AIN6*
G04 #@! TO.N,unconnected-(IC1-REFP1{slash}AIN6-Pad32)*
X143825000Y-86625000D03*
G04 #@! TD*
D11*
G04 #@! TO.P,R6,1*
G04 #@! TO.N,Net-(IC1-~{RESET})*
X133312500Y-93200000D03*
G04 #@! TO.P,R6,2*
G04 #@! TO.N,/C_RES*
X131487500Y-93200000D03*
G04 #@! TD*
D14*
G04 #@! TO.P,C10,1*
G04 #@! TO.N,/ADC/ACOM*
X145550000Y-81325000D03*
G04 #@! TO.P,C10,2*
G04 #@! TO.N,GND*
X145550000Y-79600000D03*
G04 #@! TD*
D13*
G04 #@! TO.P,R12,1*
G04 #@! TO.N,/Rs*
X135837500Y-103350000D03*
G04 #@! TO.P,R12,2*
G04 #@! TO.N,Net-(U3-Rs)*
X137662500Y-103350000D03*
G04 #@! TD*
D14*
G04 #@! TO.P,C13,1*
G04 #@! TO.N,Net-(U3-D)*
X131800000Y-96687500D03*
G04 #@! TO.P,C13,2*
G04 #@! TO.N,GND*
X131800000Y-94962500D03*
G04 #@! TD*
D13*
G04 #@! TO.P,R13,1*
G04 #@! TO.N,Net-(R13-Pad1)*
X144987500Y-97900000D03*
G04 #@! TO.P,R13,2*
G04 #@! TO.N,Net-(C17-Pad1)*
X146812500Y-97900000D03*
G04 #@! TD*
D15*
G04 #@! TO.P,C1,1*
G04 #@! TO.N,/ADC/REFOUT*
X141287500Y-93400000D03*
G04 #@! TO.P,C1,2*
G04 #@! TO.N,GND*
X143012500Y-93400000D03*
G04 #@! TD*
D18*
G04 #@! TO.P,JP1,1,A*
G04 #@! TO.N,+5V*
X155400000Y-81125000D03*
D19*
G04 #@! TO.P,JP1,2,C*
G04 #@! TO.N,/ADC/AVDD*
X152860000Y-81125000D03*
G04 #@! TO.P,JP1,3,B*
G04 #@! TO.N,+3V3*
X150320000Y-81125000D03*
G04 #@! TD*
D20*
G04 #@! TO.P,U2,1,5V*
G04 #@! TO.N,+5V*
X105195000Y-78545000D03*
G04 #@! TO.P,U2,2,GND*
G04 #@! TO.N,GND*
X105195000Y-81085000D03*
G04 #@! TO.P,U2,3,3V3*
G04 #@! TO.N,+3V3*
X105205000Y-83625000D03*
G04 #@! TO.P,U2,4,IO1*
G04 #@! TO.N,unconnected-(U2-IO1-Pad4)*
X105205000Y-86165000D03*
G04 #@! TO.P,U2,5,IO2*
G04 #@! TO.N,unconnected-(U2-IO2-Pad5)*
X105195000Y-88705000D03*
G04 #@! TO.P,U2,6,IO3*
G04 #@! TO.N,unconnected-(U2-IO3-Pad6)*
X105195000Y-91245000D03*
G04 #@! TO.P,U2,7,IO4*
G04 #@! TO.N,unconnected-(U2-IO4-Pad7)*
X105195000Y-93785000D03*
G04 #@! TO.P,U2,8,IO5*
G04 #@! TO.N,unconnected-(U2-IO5-Pad8)*
X105195000Y-96325000D03*
G04 #@! TO.P,U2,9,IO6*
G04 #@! TO.N,unconnected-(U2-IO6-Pad9)*
X105195000Y-98865000D03*
D21*
G04 #@! TO.P,U2,10,IO7*
G04 #@! TO.N,unconnected-(U2-IO7-Pad10)*
X109125000Y-100455000D03*
G04 #@! TO.P,U2,11,IO8*
G04 #@! TO.N,unconnected-(U2-IO8-Pad11)*
X111665000Y-100455000D03*
G04 #@! TO.P,U2,12,IO9*
G04 #@! TO.N,/Rs*
X114205000Y-100455000D03*
G04 #@! TO.P,U2,13,IO10*
G04 #@! TO.N,/ADC/SPI.CS*
X116745000Y-100455000D03*
G04 #@! TO.P,U2,14,IO11*
G04 #@! TO.N,/ADC/SPI.MOSI*
X119285000Y-100455000D03*
D20*
G04 #@! TO.P,U2,15,IO12*
G04 #@! TO.N,/ADC/SPI.CLK*
X123205000Y-98865000D03*
G04 #@! TO.P,U2,16,IO13*
G04 #@! TO.N,/ADC/SPI.MISO*
X123205000Y-96325000D03*
G04 #@! TO.P,U2,17,IO14*
G04 #@! TO.N,/CAN_RX*
X123205000Y-93785000D03*
G04 #@! TO.P,U2,18,IO15*
G04 #@! TO.N,/CAN_TX*
X123205000Y-91245000D03*
G04 #@! TO.P,U2,19,IO16*
G04 #@! TO.N,/C_RES*
X123205000Y-88705000D03*
G04 #@! TO.P,U2,20,IO17*
G04 #@! TO.N,/DRDY*
X123205000Y-86165000D03*
G04 #@! TO.P,U2,21,IO18*
G04 #@! TO.N,/START*
X123205000Y-83625000D03*
G04 #@! TO.P,U2,22,RXD0*
G04 #@! TO.N,unconnected-(U2-RXD0-Pad22)*
X123205000Y-81085000D03*
G04 #@! TO.P,U2,23,TXD0*
G04 #@! TO.N,unconnected-(U2-TXD0-Pad23)*
X123205000Y-78545000D03*
G04 #@! TD*
D11*
G04 #@! TO.P,R1,1*
G04 #@! TO.N,Net-(IC1-~{DRDY})*
X133312500Y-91600000D03*
G04 #@! TO.P,R1,2*
G04 #@! TO.N,/DRDY*
X131487500Y-91600000D03*
G04 #@! TD*
D14*
G04 #@! TO.P,C5,1*
G04 #@! TO.N,/ADC/D1N*
X136950000Y-81325000D03*
G04 #@! TO.P,C5,2*
G04 #@! TO.N,GND*
X136950000Y-79600000D03*
G04 #@! TD*
D22*
G04 #@! TO.P,J3,1,Pin_1*
G04 #@! TO.N,/ADC/ACOM*
X149950000Y-75675000D03*
G04 #@! TD*
D18*
G04 #@! TO.P,J8,1,Pin_1*
G04 #@! TO.N,/CAN_TX*
X128350000Y-100200000D03*
D19*
G04 #@! TO.P,J8,2,Pin_2*
G04 #@! TO.N,/CAN_RX*
X128350000Y-102740000D03*
G04 #@! TD*
D23*
G04 #@! TO.P,R10,1*
G04 #@! TO.N,/CAN_TX*
X127779765Y-93904765D03*
G04 #@! TO.P,R10,2*
G04 #@! TO.N,Net-(U3-D)*
X129070235Y-95195235D03*
G04 #@! TD*
D22*
G04 #@! TO.P,J2,1,Pin_1*
G04 #@! TO.N,/ADC/D2N*
X141950000Y-75675000D03*
D24*
G04 #@! TO.P,J2,2,Pin_2*
G04 #@! TO.N,/ADC/D2P*
X145550000Y-75675000D03*
G04 #@! TD*
D25*
G04 #@! TO.P,R8,1*
G04 #@! TO.N,+3V3*
X147750000Y-80712500D03*
G04 #@! TO.P,R8,2*
G04 #@! TO.N,/ADC/REFP*
X147750000Y-82537500D03*
G04 #@! TD*
D11*
G04 #@! TO.P,R5,1*
G04 #@! TO.N,Net-(IC1-~{CS})*
X133312500Y-85200000D03*
G04 #@! TO.P,R5,2*
G04 #@! TO.N,/ADC/SPI.CS*
X131487500Y-85200000D03*
G04 #@! TD*
D10*
G04 #@! TO.P,C3,1*
G04 #@! TO.N,GND*
X135350000Y-89200000D03*
G04 #@! TO.P,C3,2*
G04 #@! TO.N,+3V3*
X135350000Y-90925000D03*
G04 #@! TD*
D18*
G04 #@! TO.P,J6,1,Pin_1*
G04 #@! TO.N,+5V*
X106625000Y-74825000D03*
D19*
G04 #@! TO.P,J6,2,Pin_2*
X104085000Y-74825000D03*
G04 #@! TD*
D14*
G04 #@! TO.P,C16,1*
G04 #@! TO.N,+3V3*
X131800000Y-100062500D03*
G04 #@! TO.P,C16,2*
G04 #@! TO.N,GND*
X131800000Y-98337500D03*
G04 #@! TD*
D11*
G04 #@! TO.P,R3,1*
G04 #@! TO.N,Net-(IC1-SCLK)*
X133312500Y-88400000D03*
G04 #@! TO.P,R3,2*
G04 #@! TO.N,/ADC/SPI.CLK*
X131487500Y-88400000D03*
G04 #@! TD*
D18*
G04 #@! TO.P,J5,1,Pin_1*
G04 #@! TO.N,+3V3*
X115825000Y-74800000D03*
D19*
G04 #@! TO.P,J5,2,Pin_2*
X113285000Y-74800000D03*
G04 #@! TD*
D26*
G04 #@! TO.P,R15,1*
G04 #@! TO.N,Net-(R13-Pad1)*
X143450000Y-98685000D03*
G04 #@! TO.P,R15,2*
G04 #@! TO.N,/CAN+*
X143450000Y-96860000D03*
G04 #@! TD*
D27*
G04 #@! TO.P,J7,1,Pin_1*
G04 #@! TO.N,GND*
X153200000Y-86635000D03*
D28*
G04 #@! TO.P,J7,2,Pin_2*
G04 #@! TO.N,+5V*
X153200000Y-91715000D03*
G04 #@! TO.P,J7,3,Pin_3*
G04 #@! TO.N,/CAN+*
X153200000Y-96795000D03*
G04 #@! TO.P,J7,4,Pin_4*
G04 #@! TO.N,/CAN-*
X153200000Y-101875000D03*
G04 #@! TD*
D22*
G04 #@! TO.P,J1,1,Pin_1*
G04 #@! TO.N,/ADC/D1N*
X134550000Y-75675000D03*
D24*
G04 #@! TO.P,J1,2,Pin_2*
G04 #@! TO.N,/ADC/D1P*
X138150000Y-75675000D03*
G04 #@! TD*
D18*
G04 #@! TO.P,J4,1,Pin_1*
G04 #@! TO.N,GND*
X124150000Y-74800000D03*
D19*
G04 #@! TO.P,J4,2,Pin_2*
X121610000Y-74800000D03*
G04 #@! TD*
D14*
G04 #@! TO.P,C11,1*
G04 #@! TO.N,GND*
X145950000Y-86112500D03*
G04 #@! TO.P,C11,2*
G04 #@! TO.N,/ADC/REFP*
X145950000Y-84387500D03*
G04 #@! TD*
D15*
G04 #@! TO.P,C17,1*
G04 #@! TO.N,Net-(C17-Pad1)*
X146062500Y-99450000D03*
G04 #@! TO.P,C17,2*
G04 #@! TO.N,GND*
X147787500Y-99450000D03*
G04 #@! TD*
D25*
G04 #@! TO.P,R16,1*
G04 #@! TO.N,Net-(R14-Pad2)*
X143450000Y-100222500D03*
G04 #@! TO.P,R16,2*
G04 #@! TO.N,/CAN-*
X143450000Y-102047500D03*
G04 #@! TD*
D11*
G04 #@! TO.P,R14,1*
G04 #@! TO.N,Net-(C17-Pad1)*
X146812500Y-101000000D03*
G04 #@! TO.P,R14,2*
G04 #@! TO.N,Net-(R14-Pad2)*
X144987500Y-101000000D03*
G04 #@! TD*
D29*
G04 #@! TO.P,U3,1,D*
G04 #@! TO.N,Net-(U3-D)*
X135300000Y-97545000D03*
G04 #@! TO.P,U3,2,GND*
G04 #@! TO.N,GND*
X135300000Y-98815000D03*
G04 #@! TO.P,U3,3,VCC*
G04 #@! TO.N,+3V3*
X135300000Y-100085000D03*
G04 #@! TO.P,U3,4,R*
G04 #@! TO.N,Net-(U3-R)*
X135300000Y-101355000D03*
G04 #@! TO.P,U3,5,Vref*
G04 #@! TO.N,unconnected-(U3-Vref-Pad5)*
X140250000Y-101355000D03*
G04 #@! TO.P,U3,6,CANL*
G04 #@! TO.N,/CAN-*
X140250000Y-100085000D03*
G04 #@! TO.P,U3,7,CANH*
G04 #@! TO.N,/CAN+*
X140250000Y-98815000D03*
G04 #@! TO.P,U3,8,Rs*
G04 #@! TO.N,Net-(U3-Rs)*
X140250000Y-97545000D03*
G04 #@! TD*
D13*
G04 #@! TO.P,R18,1*
G04 #@! TO.N,/ADC/D2N*
X141950000Y-77775000D03*
G04 #@! TO.P,R18,2*
G04 #@! TO.N,/ADC/D2P*
X143775000Y-77775000D03*
G04 #@! TD*
D25*
G04 #@! TO.P,R9,1*
G04 #@! TO.N,/ADC/REFP*
X147750000Y-84337500D03*
G04 #@! TO.P,R9,2*
G04 #@! TO.N,GND*
X147750000Y-86162500D03*
G04 #@! TD*
D10*
G04 #@! TO.P,C2,1*
G04 #@! TO.N,GND*
X145950000Y-88337500D03*
G04 #@! TO.P,C2,2*
G04 #@! TO.N,/ADC/AVDD*
X145950000Y-90062500D03*
G04 #@! TD*
D23*
G04 #@! TO.P,R11,1*
G04 #@! TO.N,/CAN_RX*
X126704765Y-94979765D03*
G04 #@! TO.P,R11,2*
G04 #@! TO.N,Net-(U3-R)*
X127995235Y-96270235D03*
G04 #@! TD*
D30*
G04 #@! TO.N,GND*
X145550000Y-78162500D03*
X138950000Y-88750000D03*
X144350000Y-79562500D03*
X144250000Y-93400000D03*
X142350000Y-90150000D03*
X147450000Y-88250000D03*
X140050000Y-79612500D03*
X136150000Y-79612500D03*
X139200000Y-78300000D03*
D31*
X108900000Y-81725000D03*
D30*
X148650000Y-99425000D03*
X146850000Y-86100000D03*
X125100000Y-101350000D03*
X136875000Y-98800000D03*
X140800000Y-78450000D03*
D31*
X108900000Y-80425000D03*
D30*
X136021004Y-90027674D03*
D31*
X130550000Y-97775000D03*
G04 #@! TO.N,+3V3*
X136875000Y-100075000D03*
X108900000Y-83200000D03*
D30*
X138950000Y-90150000D03*
D31*
X130950945Y-99304605D03*
D30*
X136600000Y-91050000D03*
D31*
X108900000Y-84025000D03*
D30*
G04 #@! TO.N,/ADC/SPI.MISO*
X120350000Y-96100000D03*
X130700000Y-90000000D03*
G04 #@! TO.N,/ADC/SPI.MOSI*
X118525000Y-96050000D03*
X130700000Y-86800000D03*
G04 #@! TO.N,/ADC/SPI.CLK*
X130700000Y-88400000D03*
X119450000Y-96100000D03*
G04 #@! TO.N,/ADC/SPI.CS*
X130700000Y-85200000D03*
X117100000Y-96125000D03*
G04 #@! TD*
D32*
G04 #@! TO.N,+3V3*
X147750000Y-80712500D02*
X149907500Y-80712500D01*
X149907500Y-80712500D02*
X150320000Y-81125000D01*
D33*
G04 #@! TO.N,/ADC/REFOUT*
X141850000Y-91600000D02*
X141850000Y-92837500D01*
X141850000Y-92837500D02*
X141287500Y-93400000D01*
D34*
G04 #@! TO.N,GND*
X130550000Y-98125000D02*
X130762500Y-98337500D01*
D32*
X144037500Y-88337500D02*
X143876000Y-88176000D01*
X143012500Y-92211500D02*
X142401000Y-91600000D01*
D33*
X138950000Y-88750000D02*
X138600000Y-89100000D01*
X142350000Y-91600000D02*
X142350000Y-90150000D01*
D32*
X143012500Y-93400000D02*
X143012500Y-92211500D01*
X143876000Y-88176000D02*
X143825000Y-88176000D01*
D34*
X108260000Y-81085000D02*
X108240000Y-81085000D01*
X108240000Y-81085000D02*
X108900000Y-80425000D01*
X108900000Y-81725000D02*
X108260000Y-81085000D01*
X130550000Y-97775000D02*
X130550000Y-98125000D01*
D32*
X135978791Y-90027674D02*
X135350000Y-89398883D01*
X144112500Y-88337500D02*
X143825000Y-88625000D01*
D34*
X135300000Y-98815000D02*
X133802500Y-98815000D01*
D32*
X143825000Y-88625000D02*
X143825000Y-89074000D01*
D33*
X138600000Y-89100000D02*
X137400000Y-89100000D01*
X137375000Y-89125000D02*
X135425000Y-89125000D01*
D34*
X130762500Y-98337500D02*
X131800000Y-98337500D01*
D32*
X144112500Y-88337500D02*
X144037500Y-88337500D01*
X136021004Y-90027674D02*
X135978791Y-90027674D01*
D34*
X105195000Y-81085000D02*
X108240000Y-81085000D01*
D32*
X145950000Y-88337500D02*
X144112500Y-88337500D01*
D34*
X133802500Y-98815000D02*
X133325000Y-98337500D01*
D32*
G04 #@! TO.N,+3V3*
X137599000Y-89900000D02*
X137375000Y-89676000D01*
X136475000Y-90925000D02*
X136600000Y-91050000D01*
X108875000Y-84025000D02*
X108900000Y-84025000D01*
X135300000Y-100085000D02*
X136865000Y-100085000D01*
X105205000Y-83625000D02*
X108475000Y-83625000D01*
X108475000Y-83625000D02*
X108900000Y-83200000D01*
X135300000Y-100085000D02*
X133502500Y-100085000D01*
X108475000Y-83625000D02*
X108875000Y-84025000D01*
X130950945Y-99935995D02*
X131077450Y-100062500D01*
X131077450Y-100062500D02*
X131800000Y-100062500D01*
X135350000Y-90925000D02*
X136475000Y-90925000D01*
X137599000Y-89901000D02*
X137375000Y-90125000D01*
X136865000Y-100085000D02*
X136875000Y-100075000D01*
X137599000Y-89900000D02*
X137599000Y-89901000D01*
X130950945Y-99304605D02*
X130950945Y-99935995D01*
X138700000Y-89900000D02*
X137599000Y-89900000D01*
X131800000Y-100262500D02*
X133325000Y-100262500D01*
X138950000Y-90150000D02*
X138700000Y-89900000D01*
G04 #@! TO.N,/ADC/AVDD*
X145950000Y-90062500D02*
X147112500Y-90062500D01*
X145950000Y-90750000D02*
X145950000Y-90062500D01*
D33*
X143825000Y-89625000D02*
X145512500Y-89625000D01*
X145512500Y-89625000D02*
X145950000Y-90062500D01*
D32*
X147112500Y-90062500D02*
X148850000Y-88325000D01*
X145950000Y-91937500D02*
X145950000Y-90750000D01*
X148850000Y-85135000D02*
X152860000Y-81125000D01*
X148850000Y-88325000D02*
X148850000Y-85135000D01*
D33*
G04 #@! TO.N,/ADC/D1N*
X139374999Y-84197999D02*
X139301000Y-84124000D01*
X138611500Y-84124000D02*
X137487500Y-83000000D01*
X136325000Y-77775000D02*
X136812500Y-77775000D01*
X134550000Y-76000000D02*
X136325000Y-77775000D01*
X137487500Y-83000000D02*
X137487500Y-81862500D01*
X139301000Y-84124000D02*
X138611500Y-84124000D01*
X137487500Y-81862500D02*
X136950000Y-81325000D01*
X137874000Y-78836500D02*
X137874000Y-80283900D01*
X136812500Y-77775000D02*
X137874000Y-78836500D01*
X137874000Y-80283900D02*
X137874000Y-80401000D01*
X139374999Y-85125001D02*
X139374999Y-84197999D01*
X137874000Y-80401000D02*
X136950000Y-81325000D01*
X134550000Y-75675000D02*
X134550000Y-76000000D01*
G04 #@! TO.N,/ADC/D1P*
X139212500Y-81387500D02*
X139150000Y-81325000D01*
X139212500Y-83674020D02*
X139212500Y-83000000D01*
X139212500Y-83000000D02*
X139212500Y-81387500D01*
X138150000Y-77775000D02*
X138150000Y-75675000D01*
X139825001Y-85125001D02*
X139825001Y-84011633D01*
X138275000Y-77900000D02*
X138275000Y-80450000D01*
X138150000Y-77775000D02*
X138275000Y-77900000D01*
X138275000Y-80450000D02*
X139150000Y-81325000D01*
X139487388Y-83674020D02*
X139212500Y-83674020D01*
X139825001Y-84011633D02*
X139487388Y-83674020D01*
G04 #@! TO.N,/ADC/D2P*
X143775000Y-77450000D02*
X143775000Y-77775000D01*
X141551000Y-84124000D02*
X142675000Y-83000000D01*
X140899000Y-84124000D02*
X141551000Y-84124000D01*
X142374000Y-80549000D02*
X143150000Y-81325000D01*
X145550000Y-75675000D02*
X143775000Y-77450000D01*
X142675000Y-81800000D02*
X143150000Y-81325000D01*
X140825001Y-84197999D02*
X140899000Y-84124000D01*
X142374000Y-79070366D02*
X142374000Y-80549000D01*
X142675000Y-83000000D02*
X142675000Y-81800000D01*
X143669366Y-77775000D02*
X142374000Y-79070366D01*
X140825001Y-85125001D02*
X140825001Y-84197999D01*
X143775000Y-77775000D02*
X143669366Y-77775000D01*
G04 #@! TO.N,Net-(IC1-~{CS})*
X134737500Y-86625000D02*
X133312500Y-85200000D01*
X137375000Y-86625000D02*
X134737500Y-86625000D01*
G04 #@! TO.N,Net-(IC1-SCLK)*
X136349000Y-87526000D02*
X134186500Y-87526000D01*
X136399000Y-87576000D02*
X136349000Y-87526000D01*
X137326000Y-87576000D02*
X136399000Y-87576000D01*
X134186500Y-87526000D02*
X133312500Y-88400000D01*
G04 #@! TO.N,/ADC/D2N*
X140374999Y-84011633D02*
X140712612Y-83674020D01*
X140374999Y-85125001D02*
X140374999Y-84011633D01*
X141950000Y-80325000D02*
X140950000Y-81325000D01*
X140712612Y-83674020D02*
X140950000Y-83674020D01*
X141950000Y-77775000D02*
X141950000Y-80325000D01*
X140950000Y-83674020D02*
X140950000Y-83000000D01*
X141950000Y-77775000D02*
X141950000Y-75675000D01*
X140950000Y-83000000D02*
X140950000Y-81325000D01*
G04 #@! TO.N,/ADC/ACOM*
X149950000Y-76925000D02*
X149950000Y-75675000D01*
X145550000Y-81325000D02*
X149950000Y-76925000D01*
X142350000Y-85150000D02*
X145550000Y-81950000D01*
X145550000Y-81950000D02*
X145550000Y-81325000D01*
G04 #@! TO.N,Net-(IC1-START{slash}SYNC)*
X134862500Y-85150000D02*
X133312500Y-83600000D01*
X138850000Y-85150000D02*
X134862500Y-85150000D01*
G04 #@! TO.N,/ADC/REFP*
X145000000Y-85337500D02*
X145950000Y-84387500D01*
X143825000Y-87625000D02*
X144802000Y-87625000D01*
X147750000Y-82537500D02*
X147750000Y-84337500D01*
X145000000Y-87427000D02*
X145000000Y-85337500D01*
X145962500Y-84400000D02*
X147687500Y-84400000D01*
X144802000Y-87625000D02*
X145000000Y-87427000D01*
G04 #@! TO.N,Net-(IC1-~{DRDY})*
X134574000Y-90338500D02*
X133312500Y-91600000D01*
X135817134Y-88361500D02*
X134882866Y-88361500D01*
X137375000Y-88625000D02*
X136080634Y-88625000D01*
X134882866Y-88361500D02*
X134574000Y-88670366D01*
X134574000Y-88670366D02*
X134574000Y-90338500D01*
X136080634Y-88625000D02*
X135817134Y-88361500D01*
G04 #@! TO.N,Net-(IC1-DIN)*
X137375000Y-87125000D02*
X133637500Y-87125000D01*
G04 #@! TO.N,Net-(IC1-DOUT{slash}~{DRDY})*
X134101000Y-88549000D02*
X134101000Y-88867134D01*
X134723000Y-87927000D02*
X134101000Y-88549000D01*
X136132900Y-87927000D02*
X134723000Y-87927000D01*
X137326000Y-88076000D02*
X136281900Y-88076000D01*
X136281900Y-88076000D02*
X136132900Y-87927000D01*
X134101000Y-88867134D02*
X133312500Y-89655634D01*
G04 #@! TO.N,Net-(IC1-~{RESET})*
X138727000Y-93200000D02*
X133312500Y-93200000D01*
X139350000Y-92577000D02*
X138727000Y-93200000D01*
X139350000Y-91600000D02*
X139350000Y-92577000D01*
G04 #@! TO.N,Net-(U3-D)*
X131800000Y-96687500D02*
X132611500Y-97499000D01*
X129070235Y-95195235D02*
X130562500Y-96687500D01*
X130562500Y-96687500D02*
X131800000Y-96687500D01*
X132611500Y-97499000D02*
X135254000Y-97499000D01*
D32*
G04 #@! TO.N,+5V*
X105195000Y-76255000D02*
X106625000Y-74825000D01*
X105195000Y-76245000D02*
X104085000Y-75135000D01*
X105195000Y-76255000D02*
X105195000Y-76245000D01*
X105195000Y-78545000D02*
X105195000Y-76255000D01*
D33*
G04 #@! TO.N,/DRDY*
X131000000Y-91600000D02*
X125565000Y-86165000D01*
X131487500Y-91600000D02*
X131000000Y-91600000D01*
X125565000Y-86165000D02*
X123205000Y-86165000D01*
G04 #@! TO.N,Net-(U3-Rs)*
X138825000Y-97995001D02*
X138825000Y-102187500D01*
X138825000Y-102187500D02*
X137662500Y-103350000D01*
X140250000Y-97545000D02*
X139275001Y-97545000D01*
X140687500Y-95950000D02*
X140687500Y-97107500D01*
X140687500Y-97107500D02*
X140250000Y-97545000D01*
X139275001Y-97545000D02*
X138825000Y-97995001D01*
D34*
G04 #@! TO.N,Net-(C17-Pad1)*
X146812500Y-98700000D02*
X146062500Y-99450000D01*
X146812500Y-97900000D02*
X146812500Y-98700000D01*
X146812500Y-100200000D02*
X146062500Y-99450000D01*
X146812500Y-101000000D02*
X146812500Y-100200000D01*
D33*
G04 #@! TO.N,/C_RES*
X131487500Y-93200000D02*
X126992500Y-88705000D01*
X126992500Y-88705000D02*
X123205000Y-88705000D01*
G04 #@! TO.N,/START*
X131487500Y-83600000D02*
X123230000Y-83600000D01*
G04 #@! TO.N,/CAN_TX*
X127107367Y-96042995D02*
X127107367Y-98957367D01*
X127107367Y-98957367D02*
X128350000Y-100200000D01*
X127779765Y-93904765D02*
X127779765Y-95370597D01*
X127779765Y-93904765D02*
X125120000Y-91245000D01*
X127779765Y-95370597D02*
X127107367Y-96042995D01*
G04 #@! TO.N,Net-(U3-R)*
X129875000Y-98150000D02*
X127995235Y-96270235D01*
X129875000Y-99850000D02*
X129875000Y-98150000D01*
X135300000Y-101355000D02*
X134995000Y-101050000D01*
X134995000Y-101050000D02*
X131075000Y-101050000D01*
X131075000Y-101050000D02*
X129875000Y-99850000D01*
G04 #@! TO.N,/CAN_RX*
X126704765Y-94979765D02*
X126704765Y-101094765D01*
X123205000Y-93785000D02*
X125510000Y-93785000D01*
X126704765Y-101094765D02*
X128350000Y-102740000D01*
X125510000Y-93785000D02*
X126704765Y-94979765D01*
G04 #@! TO.N,/Rs*
X127873240Y-103891000D02*
X127332240Y-103350000D01*
X127332240Y-103350000D02*
X115850000Y-103350000D01*
X115850000Y-103350000D02*
X114205000Y-101705000D01*
X135837500Y-103350000D02*
X129367760Y-103350000D01*
X129367760Y-103350000D02*
X128826760Y-103891000D01*
X128826760Y-103891000D02*
X127873240Y-103891000D01*
D34*
G04 #@! TO.N,/CAN+*
X141495000Y-98815000D02*
X143450000Y-96860000D01*
X143515000Y-96795000D02*
X153095000Y-96795000D01*
X140250000Y-98815000D02*
X141495000Y-98815000D01*
G04 #@! TO.N,/CAN-*
X143809022Y-101975000D02*
X152980000Y-101975000D01*
X141487500Y-100085000D02*
X143450000Y-102047500D01*
X140250000Y-100085000D02*
X141487500Y-100085000D01*
X143736522Y-102047500D02*
X143809022Y-101975000D01*
D33*
G04 #@! TO.N,/ADC/SPI.MISO*
X120350000Y-96100000D02*
X122980000Y-96100000D01*
X131487500Y-90000000D02*
X130700000Y-90000000D01*
G04 #@! TO.N,/ADC/SPI.MOSI*
X118525000Y-96050000D02*
X118525000Y-99695000D01*
X130700000Y-86800000D02*
X131487500Y-86800000D01*
G04 #@! TO.N,/ADC/SPI.CLK*
X130700000Y-88400000D02*
X131487500Y-88400000D01*
X119450000Y-96100000D02*
X119450000Y-96422000D01*
X119450000Y-96422000D02*
X121893000Y-98865000D01*
G04 #@! TO.N,/ADC/SPI.CS*
X130700000Y-85200000D02*
X131487500Y-85200000D01*
X116745000Y-96480000D02*
X116745000Y-100455000D01*
X117100000Y-96125000D02*
X116745000Y-96480000D01*
D34*
G04 #@! TO.N,Net-(R13-Pad1)*
X143450000Y-98685000D02*
X144202500Y-98685000D01*
X144202500Y-98685000D02*
X144987500Y-97900000D01*
G04 #@! TO.N,Net-(R14-Pad2)*
X143450000Y-100222500D02*
X144210000Y-100222500D01*
X144210000Y-100222500D02*
X144987500Y-101000000D01*
G04 #@! TD*
G04 #@! TA.AperFunction,Conductor*
G04 #@! TO.N,GND*
G36*
X153984341Y-82013068D02*
G01*
X154008286Y-82030993D01*
X154040274Y-82054939D01*
X154057189Y-82085917D01*
X154106202Y-82217328D01*
X154106206Y-82217335D01*
X154192452Y-82332544D01*
X154192455Y-82332547D01*
X154307664Y-82418793D01*
X154307671Y-82418797D01*
X154442517Y-82469091D01*
X154442516Y-82469091D01*
X154449444Y-82469835D01*
X154502127Y-82475500D01*
X156297872Y-82475499D01*
X156357483Y-82469091D01*
X156492331Y-82418796D01*
X156501186Y-82412166D01*
X156566649Y-82387747D01*
X156634923Y-82402596D01*
X156684330Y-82452000D01*
X156699500Y-82511431D01*
X156699500Y-103975500D01*
X156679815Y-104042539D01*
X156627011Y-104088294D01*
X156575500Y-104099500D01*
X153521540Y-104099500D01*
X153454501Y-104079815D01*
X153408746Y-104027011D01*
X153398802Y-103957853D01*
X153427827Y-103894297D01*
X153486605Y-103856523D01*
X153505353Y-103852561D01*
X153591116Y-103841270D01*
X153844419Y-103773398D01*
X154086697Y-103673043D01*
X154313803Y-103541924D01*
X154521851Y-103382282D01*
X154521855Y-103382277D01*
X154521860Y-103382274D01*
X154707274Y-103196860D01*
X154707277Y-103196855D01*
X154707282Y-103196851D01*
X154866924Y-102988803D01*
X154998043Y-102761697D01*
X155001699Y-102752872D01*
X155050199Y-102635781D01*
X155098398Y-102519419D01*
X155166270Y-102266116D01*
X155200500Y-102006120D01*
X155200500Y-101743880D01*
X155166270Y-101483884D01*
X155098398Y-101230581D01*
X155098394Y-101230571D01*
X154998046Y-100988309D01*
X154998041Y-100988299D01*
X154866924Y-100761196D01*
X154707281Y-100553148D01*
X154707274Y-100553140D01*
X154521860Y-100367726D01*
X154521851Y-100367718D01*
X154313803Y-100208075D01*
X154086700Y-100076958D01*
X154086690Y-100076953D01*
X153844428Y-99976605D01*
X153844421Y-99976603D01*
X153844419Y-99976602D01*
X153591116Y-99908730D01*
X153533339Y-99901123D01*
X153331127Y-99874500D01*
X153331120Y-99874500D01*
X153068880Y-99874500D01*
X153068872Y-99874500D01*
X152837772Y-99904926D01*
X152808884Y-99908730D01*
X152593271Y-99966503D01*
X152555581Y-99976602D01*
X152555571Y-99976605D01*
X152313309Y-100076953D01*
X152313299Y-100076958D01*
X152086196Y-100208075D01*
X151878148Y-100367718D01*
X151692718Y-100553148D01*
X151533075Y-100761196D01*
X151401958Y-100988299D01*
X151401951Y-100988314D01*
X151356539Y-101097952D01*
X151312699Y-101152356D01*
X151246405Y-101174421D01*
X151241978Y-101174500D01*
X147924500Y-101174500D01*
X147857461Y-101154815D01*
X147811706Y-101102011D01*
X147800500Y-101050500D01*
X147800499Y-100713331D01*
X147800498Y-100713312D01*
X147790174Y-100612247D01*
X147735908Y-100448484D01*
X147721422Y-100424999D01*
X148037500Y-100424999D01*
X148136640Y-100424999D01*
X148136654Y-100424998D01*
X148237652Y-100414680D01*
X148401300Y-100360453D01*
X148401311Y-100360448D01*
X148548034Y-100269947D01*
X148548038Y-100269944D01*
X148669944Y-100148038D01*
X148669947Y-100148034D01*
X148760448Y-100001311D01*
X148760453Y-100001300D01*
X148814680Y-99837652D01*
X148824999Y-99736654D01*
X148825000Y-99736641D01*
X148825000Y-99700000D01*
X148037500Y-99700000D01*
X148037500Y-100424999D01*
X147721422Y-100424999D01*
X147645340Y-100301650D01*
X147645339Y-100301649D01*
X147645338Y-100301647D01*
X147640862Y-100295987D01*
X147643091Y-100294224D01*
X147637677Y-100284310D01*
X147622436Y-100265393D01*
X147619621Y-100251242D01*
X147615834Y-100244306D01*
X147613710Y-100231195D01*
X147613000Y-100224587D01*
X147613000Y-100121158D01*
X147589915Y-100005105D01*
X147582237Y-99966503D01*
X147560022Y-99912872D01*
X147560021Y-99912869D01*
X147546938Y-99881282D01*
X147537500Y-99833832D01*
X147537500Y-99200000D01*
X148037500Y-99200000D01*
X148824999Y-99200000D01*
X148824999Y-99163360D01*
X148824998Y-99163345D01*
X148814680Y-99062347D01*
X148760453Y-98898699D01*
X148760448Y-98898688D01*
X148669947Y-98751965D01*
X148669944Y-98751961D01*
X148548038Y-98630055D01*
X148548034Y-98630052D01*
X148401311Y-98539551D01*
X148401300Y-98539546D01*
X148237652Y-98485319D01*
X148136654Y-98475000D01*
X148037500Y-98475000D01*
X148037500Y-99200000D01*
X147537500Y-99200000D01*
X147537500Y-99066167D01*
X147538051Y-99062823D01*
X147537606Y-99061036D01*
X147540544Y-99047712D01*
X147544070Y-99026339D01*
X147545376Y-99022486D01*
X147582237Y-98933497D01*
X147590125Y-98893842D01*
X147601174Y-98838294D01*
X147613000Y-98778845D01*
X147613000Y-98682052D01*
X147632685Y-98615013D01*
X147641281Y-98604344D01*
X147640862Y-98604013D01*
X147645338Y-98598352D01*
X147645340Y-98598350D01*
X147735908Y-98451516D01*
X147790174Y-98287753D01*
X147800500Y-98186677D01*
X147800499Y-97719499D01*
X147820183Y-97652461D01*
X147872987Y-97606706D01*
X147924499Y-97595500D01*
X151283399Y-97595500D01*
X151350438Y-97615185D01*
X151396193Y-97667989D01*
X151397961Y-97672051D01*
X151401950Y-97681683D01*
X151401958Y-97681700D01*
X151533075Y-97908803D01*
X151692718Y-98116851D01*
X151692726Y-98116860D01*
X151878140Y-98302274D01*
X151878148Y-98302281D01*
X152086196Y-98461924D01*
X152313299Y-98593041D01*
X152313309Y-98593046D01*
X152468360Y-98657270D01*
X152555581Y-98693398D01*
X152808884Y-98761270D01*
X153068880Y-98795500D01*
X153068887Y-98795500D01*
X153331113Y-98795500D01*
X153331120Y-98795500D01*
X153591116Y-98761270D01*
X153844419Y-98693398D01*
X154086697Y-98593043D01*
X154313803Y-98461924D01*
X154521851Y-98302282D01*
X154521855Y-98302277D01*
X154521860Y-98302274D01*
X154707274Y-98116860D01*
X154707277Y-98116855D01*
X154707282Y-98116851D01*
X154866924Y-97908803D01*
X154998043Y-97681697D01*
X154998843Y-97679767D01*
X155039960Y-97580500D01*
X155098398Y-97439419D01*
X155166270Y-97186116D01*
X155200500Y-96926120D01*
X155200500Y-96663880D01*
X155166270Y-96403884D01*
X155098398Y-96150581D01*
X155097805Y-96149150D01*
X154998046Y-95908309D01*
X154998041Y-95908299D01*
X154866924Y-95681196D01*
X154730351Y-95503213D01*
X154707282Y-95473149D01*
X154707281Y-95473148D01*
X154707274Y-95473140D01*
X154521860Y-95287726D01*
X154521851Y-95287718D01*
X154313803Y-95128075D01*
X154086700Y-94996958D01*
X154086690Y-94996953D01*
X153844428Y-94896605D01*
X153844421Y-94896603D01*
X153844419Y-94896602D01*
X153591116Y-94828730D01*
X153533339Y-94821123D01*
X153331127Y-94794500D01*
X153331120Y-94794500D01*
X153068880Y-94794500D01*
X153068872Y-94794500D01*
X152837772Y-94824926D01*
X152808884Y-94828730D01*
X152570957Y-94892482D01*
X152555581Y-94896602D01*
X152555571Y-94896605D01*
X152313309Y-94996953D01*
X152313299Y-94996958D01*
X152086196Y-95128075D01*
X151878148Y-95287718D01*
X151692718Y-95473148D01*
X151533075Y-95681196D01*
X151401958Y-95908299D01*
X151401950Y-95908316D01*
X151397961Y-95917949D01*
X151354122Y-95972354D01*
X151287828Y-95994421D01*
X151283399Y-95994500D01*
X144130567Y-95994500D01*
X144065471Y-95976039D01*
X144001522Y-95936595D01*
X144001517Y-95936593D01*
X144001516Y-95936592D01*
X143837753Y-95882326D01*
X143837751Y-95882325D01*
X143736678Y-95872000D01*
X143163330Y-95872000D01*
X143163312Y-95872001D01*
X143062247Y-95882325D01*
X142898484Y-95936592D01*
X142898481Y-95936593D01*
X142751648Y-96027161D01*
X142629661Y-96149148D01*
X142539093Y-96295981D01*
X142539091Y-96295986D01*
X142514859Y-96369115D01*
X142484826Y-96459747D01*
X142484826Y-96459748D01*
X142484825Y-96459748D01*
X142474500Y-96560815D01*
X142474500Y-96652059D01*
X142454815Y-96719098D01*
X142438181Y-96739740D01*
X141907529Y-97270392D01*
X141846206Y-97303877D01*
X141776514Y-97298893D01*
X141720581Y-97257021D01*
X141700772Y-97217308D01*
X141676744Y-97134602D01*
X141593081Y-96993135D01*
X141593079Y-96993133D01*
X141593076Y-96993129D01*
X141496999Y-96897052D01*
X141463514Y-96835729D01*
X141468498Y-96766037D01*
X141496995Y-96721694D01*
X141570340Y-96648350D01*
X141660908Y-96501516D01*
X141715174Y-96337753D01*
X141725500Y-96236677D01*
X141725499Y-95663324D01*
X141720317Y-95612599D01*
X141715174Y-95562247D01*
X141695611Y-95503210D01*
X141660908Y-95398484D01*
X141570340Y-95251650D01*
X141448350Y-95129660D01*
X141327307Y-95055000D01*
X141301518Y-95039093D01*
X141301513Y-95039091D01*
X141269980Y-95028642D01*
X141137753Y-94984826D01*
X141137751Y-94984825D01*
X141036678Y-94974500D01*
X140338330Y-94974500D01*
X140338312Y-94974501D01*
X140237247Y-94984825D01*
X140073484Y-95039092D01*
X140073481Y-95039093D01*
X139926648Y-95129661D01*
X139912325Y-95143984D01*
X139851001Y-95177468D01*
X139781309Y-95172482D01*
X139736965Y-95143982D01*
X139723038Y-95130055D01*
X139723034Y-95130052D01*
X139576311Y-95039551D01*
X139576300Y-95039546D01*
X139412652Y-94985319D01*
X139311654Y-94975000D01*
X139212500Y-94975000D01*
X139212500Y-95826000D01*
X139192815Y-95893039D01*
X139140011Y-95938794D01*
X139088500Y-95950000D01*
X138962500Y-95950000D01*
X138962500Y-96076000D01*
X138942815Y-96143039D01*
X138890011Y-96188794D01*
X138838500Y-96200000D01*
X137925001Y-96200000D01*
X137925001Y-96236654D01*
X137935319Y-96337652D01*
X137989546Y-96501300D01*
X137989551Y-96501311D01*
X138080052Y-96648034D01*
X138080055Y-96648038D01*
X138201961Y-96769944D01*
X138201965Y-96769947D01*
X138348688Y-96860448D01*
X138348699Y-96860453D01*
X138512347Y-96914680D01*
X138613351Y-96924999D01*
X138729818Y-96924999D01*
X138734693Y-96926430D01*
X138739667Y-96925391D01*
X138767876Y-96936173D01*
X138796858Y-96944683D01*
X138800185Y-96948523D01*
X138804931Y-96950337D01*
X138822834Y-96974661D01*
X138842613Y-96997487D01*
X138843336Y-97002515D01*
X138846348Y-97006608D01*
X138848258Y-97036751D01*
X138852557Y-97066645D01*
X138850533Y-97072642D01*
X138850768Y-97076338D01*
X138840958Y-97101029D01*
X138838166Y-97109306D01*
X138837366Y-97110741D01*
X138823256Y-97134602D01*
X138822349Y-97137722D01*
X138817349Y-97146706D01*
X138811127Y-97152827D01*
X138796683Y-97174080D01*
X138449217Y-97521547D01*
X138449214Y-97521549D01*
X138449215Y-97521550D01*
X138344478Y-97626287D01*
X138318057Y-97672051D01*
X138299323Y-97704500D01*
X138287199Y-97725499D01*
X138267081Y-97760345D01*
X138265423Y-97763216D01*
X138224499Y-97915944D01*
X138224499Y-97915946D01*
X138224499Y-98084047D01*
X138224500Y-98084060D01*
X138224500Y-101887402D01*
X138204815Y-101954441D01*
X138188181Y-101975083D01*
X137825082Y-102338181D01*
X137763759Y-102371666D01*
X137737401Y-102374500D01*
X137363330Y-102374500D01*
X137363312Y-102374501D01*
X137262247Y-102384825D01*
X137098484Y-102439092D01*
X137098481Y-102439093D01*
X136951648Y-102529661D01*
X136837681Y-102643629D01*
X136776358Y-102677114D01*
X136706666Y-102672130D01*
X136662319Y-102643629D01*
X136548351Y-102529661D01*
X136548350Y-102529660D01*
X136401516Y-102439092D01*
X136238257Y-102384993D01*
X136180813Y-102345220D01*
X136153990Y-102280704D01*
X136166305Y-102211928D01*
X136213849Y-102160728D01*
X136242659Y-102148213D01*
X136385398Y-102106744D01*
X136526865Y-102023081D01*
X136643081Y-101906865D01*
X136726744Y-101765398D01*
X136772598Y-101607569D01*
X136775500Y-101570694D01*
X136775500Y-101139306D01*
X136773133Y-101109228D01*
X136787498Y-101040851D01*
X136836549Y-100991095D01*
X136896751Y-100975500D01*
X136963693Y-100975500D01*
X136963694Y-100975499D01*
X137021682Y-100963964D01*
X137137658Y-100940896D01*
X137137661Y-100940894D01*
X137137666Y-100940894D01*
X137301547Y-100873013D01*
X137449035Y-100774464D01*
X137574464Y-100649035D01*
X137673013Y-100501547D01*
X137740894Y-100337666D01*
X137741234Y-100335960D01*
X137775499Y-100163695D01*
X137775500Y-100163693D01*
X137775500Y-99986306D01*
X137775499Y-99986304D01*
X137740896Y-99812341D01*
X137740893Y-99812332D01*
X137673016Y-99648459D01*
X137673009Y-99648446D01*
X137574464Y-99500965D01*
X137574461Y-99500961D01*
X137449038Y-99375538D01*
X137449034Y-99375535D01*
X137301553Y-99276990D01*
X137301540Y-99276983D01*
X137137667Y-99209106D01*
X137137658Y-99209103D01*
X136963694Y-99174500D01*
X136963691Y-99174500D01*
X136897820Y-99174500D01*
X136830781Y-99154815D01*
X136785026Y-99102011D01*
X136779947Y-99073278D01*
X136772295Y-99065000D01*
X135424000Y-99065000D01*
X135356961Y-99045315D01*
X135311206Y-98992511D01*
X135300000Y-98941000D01*
X135300000Y-98689000D01*
X135319685Y-98621961D01*
X135372489Y-98576206D01*
X135424000Y-98565000D01*
X136772295Y-98565000D01*
X136772295Y-98564998D01*
X136772100Y-98562513D01*
X136726281Y-98404801D01*
X136642685Y-98263447D01*
X136637900Y-98257278D01*
X136640366Y-98255364D01*
X136613802Y-98206776D01*
X136618749Y-98137082D01*
X136639856Y-98104232D01*
X136638301Y-98103026D01*
X136643077Y-98096868D01*
X136643081Y-98096865D01*
X136726744Y-97955398D01*
X136772598Y-97797569D01*
X136775500Y-97760694D01*
X136775500Y-97329306D01*
X136772598Y-97292431D01*
X136771778Y-97289610D01*
X136731910Y-97152384D01*
X136726744Y-97134602D01*
X136643081Y-96993135D01*
X136643079Y-96993133D01*
X136643076Y-96993129D01*
X136526870Y-96876923D01*
X136526862Y-96876917D01*
X136448681Y-96830681D01*
X136385398Y-96793256D01*
X136385397Y-96793255D01*
X136385396Y-96793255D01*
X136385393Y-96793254D01*
X136227573Y-96747402D01*
X136227567Y-96747401D01*
X136190701Y-96744500D01*
X136190694Y-96744500D01*
X134409306Y-96744500D01*
X134409298Y-96744500D01*
X134372432Y-96747401D01*
X134372426Y-96747402D01*
X134214606Y-96793254D01*
X134214603Y-96793255D01*
X134066420Y-96880890D01*
X134064728Y-96878029D01*
X134013809Y-96898015D01*
X134002858Y-96898500D01*
X132911597Y-96898500D01*
X132882156Y-96889855D01*
X132852170Y-96883332D01*
X132847154Y-96879577D01*
X132844558Y-96878815D01*
X132823916Y-96862181D01*
X132811818Y-96850083D01*
X132778333Y-96788760D01*
X132775499Y-96762402D01*
X132775499Y-96338330D01*
X132775498Y-96338313D01*
X132765174Y-96237247D01*
X132745820Y-96178842D01*
X132710908Y-96073484D01*
X132620340Y-95926650D01*
X132606017Y-95912327D01*
X132572532Y-95851004D01*
X132577516Y-95781312D01*
X132590833Y-95755402D01*
X132652801Y-95663345D01*
X137925000Y-95663345D01*
X137925000Y-95700000D01*
X138712500Y-95700000D01*
X138712500Y-94974999D01*
X138613360Y-94975000D01*
X138613344Y-94975001D01*
X138512347Y-94985319D01*
X138348699Y-95039546D01*
X138348688Y-95039551D01*
X138201965Y-95130052D01*
X138201961Y-95130055D01*
X138080055Y-95251961D01*
X138080052Y-95251965D01*
X137989551Y-95398688D01*
X137989546Y-95398699D01*
X137935319Y-95562347D01*
X137925000Y-95663345D01*
X132652801Y-95663345D01*
X132700145Y-95593012D01*
X132710451Y-95576305D01*
X132710453Y-95576300D01*
X132764680Y-95412652D01*
X132774999Y-95311654D01*
X132775000Y-95311641D01*
X132775000Y-95212500D01*
X130825001Y-95212500D01*
X130825001Y-95311654D01*
X130835319Y-95412652D01*
X130889546Y-95576300D01*
X130889551Y-95576311D01*
X130980052Y-95723034D01*
X130980055Y-95723038D01*
X130993982Y-95736965D01*
X131027467Y-95798288D01*
X131022483Y-95867980D01*
X131007648Y-95896094D01*
X131001511Y-95904798D01*
X130979660Y-95926650D01*
X130934565Y-95999759D01*
X130932370Y-96002874D01*
X130907868Y-96022330D01*
X130884613Y-96043248D01*
X130880732Y-96043879D01*
X130877654Y-96046324D01*
X130846525Y-96049445D01*
X130815651Y-96054469D01*
X130812045Y-96052902D01*
X130808133Y-96053295D01*
X130780258Y-96039091D01*
X130751569Y-96026626D01*
X130746243Y-96021758D01*
X130745879Y-96021573D01*
X130745694Y-96021257D01*
X130743342Y-96019107D01*
X130175373Y-95451138D01*
X130141888Y-95389815D01*
X130142397Y-95334859D01*
X130152949Y-95290339D01*
X130152950Y-95290330D01*
X130152950Y-95117816D01*
X130152950Y-95117814D01*
X130113164Y-94949945D01*
X130035738Y-94795776D01*
X130035735Y-94795772D01*
X130035734Y-94795770D01*
X129971577Y-94717013D01*
X129971576Y-94717012D01*
X129971568Y-94717002D01*
X129548468Y-94293904D01*
X129548460Y-94293897D01*
X129548454Y-94293892D01*
X129469701Y-94229737D01*
X129469695Y-94229733D01*
X129469694Y-94229732D01*
X129315525Y-94152306D01*
X129147656Y-94112520D01*
X128986480Y-94112520D01*
X128919441Y-94092835D01*
X128873686Y-94040031D01*
X128862480Y-93988520D01*
X128862480Y-93827346D01*
X128861245Y-93822134D01*
X128822694Y-93659475D01*
X128745268Y-93505306D01*
X128745265Y-93505302D01*
X128745264Y-93505300D01*
X128681107Y-93426543D01*
X128681106Y-93426542D01*
X128681098Y-93426532D01*
X128257998Y-93003434D01*
X128257990Y-93003427D01*
X128257984Y-93003422D01*
X128179231Y-92939267D01*
X128179225Y-92939263D01*
X128179224Y-92939262D01*
X128025055Y-92861836D01*
X127857186Y-92822050D01*
X127684666Y-92822050D01*
X127669734Y-92825589D01*
X127640138Y-92832603D01*
X127570366Y-92828909D01*
X127523862Y-92799626D01*
X125991818Y-91267582D01*
X125958333Y-91206259D01*
X125955499Y-91179901D01*
X125955499Y-90197129D01*
X125955498Y-90197123D01*
X125955497Y-90197116D01*
X125949091Y-90137517D01*
X125904637Y-90018332D01*
X125899654Y-89948642D01*
X125904638Y-89931667D01*
X125906331Y-89927128D01*
X125949091Y-89812483D01*
X125955500Y-89752873D01*
X125955500Y-89429500D01*
X125975185Y-89362461D01*
X126027989Y-89316706D01*
X126079500Y-89305500D01*
X126692403Y-89305500D01*
X126759442Y-89325185D01*
X126780084Y-89341819D01*
X130463181Y-93024916D01*
X130496666Y-93086239D01*
X130499500Y-93112597D01*
X130499500Y-93486669D01*
X130499501Y-93486687D01*
X130509825Y-93587752D01*
X130533043Y-93657817D01*
X130552157Y-93715500D01*
X130564092Y-93751515D01*
X130564093Y-93751518D01*
X130586443Y-93787753D01*
X130654660Y-93898350D01*
X130776650Y-94020340D01*
X130899610Y-94096182D01*
X130946333Y-94148129D01*
X130957556Y-94217092D01*
X130940051Y-94266816D01*
X130889550Y-94348690D01*
X130889546Y-94348699D01*
X130835319Y-94512347D01*
X130825000Y-94613345D01*
X130825000Y-94712500D01*
X132774999Y-94712500D01*
X132774999Y-94613360D01*
X132774998Y-94613345D01*
X132764680Y-94512347D01*
X132710453Y-94348699D01*
X132710449Y-94348690D01*
X132695187Y-94323948D01*
X132676745Y-94256556D01*
X132697666Y-94189892D01*
X132751307Y-94145121D01*
X132820638Y-94136458D01*
X132839722Y-94141141D01*
X132912247Y-94165174D01*
X133013323Y-94175500D01*
X133611676Y-94175499D01*
X133611684Y-94175498D01*
X133611687Y-94175498D01*
X133667030Y-94169844D01*
X133712753Y-94165174D01*
X133876516Y-94110908D01*
X134023350Y-94020340D01*
X134145340Y-93898350D01*
X134169362Y-93859404D01*
X134221310Y-93812679D01*
X134274901Y-93800500D01*
X138640331Y-93800500D01*
X138640347Y-93800501D01*
X138647943Y-93800501D01*
X138806054Y-93800501D01*
X138806057Y-93800501D01*
X138958785Y-93759577D01*
X139035128Y-93715500D01*
X139065788Y-93697799D01*
X139095709Y-93680524D01*
X139095708Y-93680524D01*
X139095716Y-93680520D01*
X139207520Y-93568716D01*
X139207520Y-93568714D01*
X139217724Y-93558511D01*
X139217728Y-93558506D01*
X139718713Y-93057521D01*
X139718716Y-93057520D01*
X139830520Y-92945716D01*
X139864129Y-92887500D01*
X139871112Y-92880841D01*
X139874784Y-92871919D01*
X139895982Y-92857126D01*
X139914695Y-92839284D01*
X139925698Y-92836391D01*
X139932083Y-92831937D01*
X139959972Y-92827383D01*
X139966801Y-92825589D01*
X139969166Y-92825499D01*
X140047872Y-92825499D01*
X140091005Y-92820861D01*
X140095285Y-92820699D01*
X140097742Y-92821320D01*
X140113252Y-92821320D01*
X140152127Y-92825500D01*
X140152142Y-92825499D01*
X140155452Y-92825678D01*
X140155375Y-92827106D01*
X140216938Y-92845127D01*
X140262738Y-92897892D01*
X140272740Y-92967042D01*
X140267695Y-92988498D01*
X140259825Y-93012248D01*
X140249500Y-93113315D01*
X140249500Y-93686669D01*
X140249501Y-93686687D01*
X140259825Y-93787752D01*
X140283569Y-93859404D01*
X140314092Y-93951516D01*
X140404660Y-94098350D01*
X140526650Y-94220340D01*
X140673484Y-94310908D01*
X140837247Y-94365174D01*
X140938323Y-94375500D01*
X141636676Y-94375499D01*
X141636684Y-94375498D01*
X141636687Y-94375498D01*
X141692030Y-94369844D01*
X141737753Y-94365174D01*
X141901516Y-94310908D01*
X142048350Y-94220340D01*
X142062671Y-94206018D01*
X142123989Y-94172533D01*
X142193681Y-94177514D01*
X142238034Y-94206017D01*
X142251961Y-94219944D01*
X142251965Y-94219947D01*
X142398688Y-94310448D01*
X142398699Y-94310453D01*
X142562347Y-94364680D01*
X142663351Y-94374999D01*
X143262500Y-94374999D01*
X143361640Y-94374999D01*
X143361654Y-94374998D01*
X143462652Y-94364680D01*
X143626300Y-94310453D01*
X143626311Y-94310448D01*
X143773034Y-94219947D01*
X143773038Y-94219944D01*
X143894944Y-94098038D01*
X143894947Y-94098034D01*
X143948228Y-94011654D01*
X144975001Y-94011654D01*
X144985319Y-94112652D01*
X145039546Y-94276300D01*
X145039551Y-94276311D01*
X145130052Y-94423034D01*
X145130055Y-94423038D01*
X145251961Y-94544944D01*
X145251965Y-94544947D01*
X145398688Y-94635448D01*
X145398699Y-94635453D01*
X145562347Y-94689680D01*
X145663352Y-94699999D01*
X145700000Y-94699999D01*
X146200000Y-94699999D01*
X146236640Y-94699999D01*
X146236654Y-94699998D01*
X146337652Y-94689680D01*
X146501300Y-94635453D01*
X146501311Y-94635448D01*
X146648034Y-94544947D01*
X146648038Y-94544944D01*
X146769944Y-94423038D01*
X146769947Y-94423034D01*
X146860448Y-94276311D01*
X146860453Y-94276300D01*
X146914680Y-94112652D01*
X146924999Y-94011654D01*
X146925000Y-94011641D01*
X146925000Y-93912500D01*
X146200000Y-93912500D01*
X146200000Y-94699999D01*
X145700000Y-94699999D01*
X145700000Y-93912500D01*
X144975001Y-93912500D01*
X144975001Y-94011654D01*
X143948228Y-94011654D01*
X143985448Y-93951311D01*
X143985453Y-93951300D01*
X144028255Y-93822134D01*
X144028255Y-93822133D01*
X144039680Y-93787653D01*
X144049999Y-93686654D01*
X144050000Y-93686641D01*
X144050000Y-93650000D01*
X143262500Y-93650000D01*
X143262500Y-94374999D01*
X142663351Y-94374999D01*
X142762500Y-94374998D01*
X142762500Y-93150000D01*
X143262500Y-93150000D01*
X144049999Y-93150000D01*
X144049999Y-93113360D01*
X144049998Y-93113345D01*
X144039680Y-93012347D01*
X143985453Y-92848699D01*
X143985448Y-92848688D01*
X143894947Y-92701965D01*
X143894944Y-92701961D01*
X143773038Y-92580055D01*
X143773034Y-92580052D01*
X143626311Y-92489551D01*
X143626300Y-92489546D01*
X143462652Y-92435319D01*
X143361654Y-92425000D01*
X143262500Y-92425000D01*
X143262500Y-93150000D01*
X142762500Y-93150000D01*
X142762500Y-92419000D01*
X142782185Y-92351961D01*
X142834989Y-92306206D01*
X142860345Y-92297790D01*
X143000000Y-92267655D01*
X143000000Y-91750000D01*
X142624500Y-91750000D01*
X142615814Y-91747449D01*
X142606855Y-91748738D01*
X142582813Y-91737759D01*
X142557461Y-91730315D01*
X142551534Y-91723475D01*
X142543299Y-91719715D01*
X142529008Y-91697479D01*
X142511706Y-91677511D01*
X142509418Y-91666997D01*
X142505524Y-91660937D01*
X142500500Y-91626002D01*
X142500499Y-91574002D01*
X142520182Y-91506963D01*
X142572985Y-91461207D01*
X142624499Y-91450000D01*
X143000000Y-91450000D01*
X143000000Y-90899499D01*
X143019685Y-90832460D01*
X143072489Y-90786705D01*
X143123995Y-90775499D01*
X144597872Y-90775499D01*
X144657483Y-90769091D01*
X144792331Y-90718796D01*
X144870365Y-90660379D01*
X144935829Y-90635962D01*
X145004102Y-90650813D01*
X145050214Y-90694548D01*
X145128767Y-90821903D01*
X145129661Y-90823351D01*
X145213181Y-90906871D01*
X145227884Y-90933798D01*
X145244477Y-90959617D01*
X145245368Y-90965817D01*
X145246666Y-90968194D01*
X145249500Y-90994552D01*
X145249500Y-91005448D01*
X145229815Y-91072487D01*
X145213181Y-91093129D01*
X145129661Y-91176648D01*
X145039093Y-91323481D01*
X145039092Y-91323484D01*
X144984826Y-91487247D01*
X144984826Y-91487248D01*
X144984825Y-91487248D01*
X144974500Y-91588315D01*
X144974500Y-92286669D01*
X144974501Y-92286687D01*
X144984825Y-92387752D01*
X145015351Y-92479871D01*
X145039092Y-92551516D01*
X145129659Y-92698349D01*
X145129661Y-92698351D01*
X145143982Y-92712672D01*
X145177467Y-92773995D01*
X145172483Y-92843687D01*
X145143985Y-92888032D01*
X145130052Y-92901965D01*
X145039551Y-93048688D01*
X145039546Y-93048699D01*
X144985319Y-93212347D01*
X144975000Y-93313345D01*
X144975000Y-93412500D01*
X146924999Y-93412500D01*
X146924999Y-93313360D01*
X146924998Y-93313345D01*
X146914680Y-93212347D01*
X146860453Y-93048699D01*
X146860448Y-93048688D01*
X146769947Y-92901965D01*
X146769944Y-92901961D01*
X146756017Y-92888034D01*
X146722532Y-92826711D01*
X146727516Y-92757019D01*
X146756017Y-92712672D01*
X146770340Y-92698350D01*
X146860908Y-92551516D01*
X146915174Y-92387753D01*
X146925500Y-92286677D01*
X146925499Y-91588324D01*
X146925044Y-91583872D01*
X151199500Y-91583872D01*
X151199500Y-91846127D01*
X151218147Y-91987753D01*
X151233730Y-92106116D01*
X151301602Y-92359418D01*
X151301605Y-92359428D01*
X151401953Y-92601690D01*
X151401958Y-92601700D01*
X151533075Y-92828803D01*
X151692718Y-93036851D01*
X151692726Y-93036860D01*
X151878140Y-93222274D01*
X151878148Y-93222281D01*
X152086196Y-93381924D01*
X152313299Y-93513041D01*
X152313309Y-93513046D01*
X152555571Y-93613394D01*
X152555581Y-93613398D01*
X152808884Y-93681270D01*
X153068880Y-93715500D01*
X153068887Y-93715500D01*
X153331113Y-93715500D01*
X153331120Y-93715500D01*
X153591116Y-93681270D01*
X153844419Y-93613398D01*
X154086697Y-93513043D01*
X154313803Y-93381924D01*
X154521851Y-93222282D01*
X154521855Y-93222277D01*
X154521860Y-93222274D01*
X154707274Y-93036860D01*
X154707277Y-93036855D01*
X154707282Y-93036851D01*
X154866924Y-92828803D01*
X154998043Y-92601697D01*
X155098398Y-92359419D01*
X155166270Y-92106116D01*
X155200500Y-91846120D01*
X155200500Y-91583880D01*
X155166270Y-91323884D01*
X155098398Y-91070581D01*
X155066906Y-90994552D01*
X154998046Y-90828309D01*
X154998041Y-90828299D01*
X154866924Y-90601196D01*
X154707281Y-90393148D01*
X154707274Y-90393140D01*
X154521860Y-90207726D01*
X154521851Y-90207718D01*
X154313803Y-90048075D01*
X154086700Y-89916958D01*
X154086690Y-89916953D01*
X153844428Y-89816605D01*
X153844421Y-89816603D01*
X153844419Y-89816602D01*
X153591116Y-89748730D01*
X153533339Y-89741123D01*
X153331127Y-89714500D01*
X153331120Y-89714500D01*
X153068880Y-89714500D01*
X153068872Y-89714500D01*
X152837772Y-89744926D01*
X152808884Y-89748730D01*
X152570957Y-89812482D01*
X152555581Y-89816602D01*
X152555571Y-89816605D01*
X152313309Y-89916953D01*
X152313299Y-89916958D01*
X152086196Y-90048075D01*
X151878148Y-90207718D01*
X151692718Y-90393148D01*
X151533075Y-90601196D01*
X151401958Y-90828299D01*
X151401953Y-90828309D01*
X151301605Y-91070571D01*
X151301602Y-91070581D01*
X151258548Y-91231264D01*
X151233730Y-91323885D01*
X151199500Y-91583872D01*
X146925044Y-91583872D01*
X146915174Y-91487247D01*
X146860908Y-91323484D01*
X146770340Y-91176650D01*
X146686819Y-91093129D01*
X146672115Y-91066201D01*
X146655523Y-91040383D01*
X146654631Y-91034182D01*
X146653334Y-91031806D01*
X146650500Y-91005448D01*
X146650500Y-90994552D01*
X146670185Y-90927513D01*
X146686819Y-90906871D01*
X146711168Y-90882522D01*
X146770340Y-90823350D01*
X146771233Y-90821901D01*
X146772104Y-90821117D01*
X146774821Y-90817683D01*
X146775407Y-90818147D01*
X146823180Y-90775179D01*
X146876771Y-90763000D01*
X147181496Y-90763000D01*
X147272540Y-90744889D01*
X147316828Y-90736080D01*
X147407917Y-90698350D01*
X147444307Y-90683277D01*
X147444308Y-90683276D01*
X147444311Y-90683275D01*
X147559043Y-90606614D01*
X149394114Y-88771543D01*
X149470775Y-88656811D01*
X149479810Y-88635000D01*
X149523578Y-88529332D01*
X149523580Y-88529328D01*
X149550500Y-88393994D01*
X149550500Y-88256006D01*
X149550500Y-85476517D01*
X149570185Y-85409478D01*
X149586814Y-85388841D01*
X149888500Y-85087155D01*
X151200000Y-85087155D01*
X151200000Y-86385000D01*
X152480936Y-86385000D01*
X152469207Y-86413316D01*
X152440000Y-86560147D01*
X152440000Y-86709853D01*
X152469207Y-86856684D01*
X152480936Y-86885000D01*
X151200000Y-86885000D01*
X151200000Y-88182844D01*
X151206401Y-88242372D01*
X151206403Y-88242379D01*
X151256645Y-88377086D01*
X151256649Y-88377093D01*
X151342809Y-88492187D01*
X151342812Y-88492190D01*
X151457906Y-88578350D01*
X151457913Y-88578354D01*
X151592620Y-88628596D01*
X151592627Y-88628598D01*
X151652155Y-88634999D01*
X151652172Y-88635000D01*
X152950000Y-88635000D01*
X152950000Y-87354064D01*
X152978316Y-87365793D01*
X153125147Y-87395000D01*
X153274853Y-87395000D01*
X153421684Y-87365793D01*
X153450000Y-87354064D01*
X153450000Y-88635000D01*
X154747828Y-88635000D01*
X154747844Y-88634999D01*
X154807372Y-88628598D01*
X154807379Y-88628596D01*
X154942086Y-88578354D01*
X154942093Y-88578350D01*
X155057187Y-88492190D01*
X155057190Y-88492187D01*
X155143350Y-88377093D01*
X155143354Y-88377086D01*
X155193596Y-88242379D01*
X155193598Y-88242372D01*
X155199999Y-88182844D01*
X155200000Y-88182827D01*
X155200000Y-86885000D01*
X153919064Y-86885000D01*
X153930793Y-86856684D01*
X153960000Y-86709853D01*
X153960000Y-86560147D01*
X153930793Y-86413316D01*
X153919064Y-86385000D01*
X155200000Y-86385000D01*
X155200000Y-85087172D01*
X155199999Y-85087155D01*
X155193598Y-85027627D01*
X155193596Y-85027620D01*
X155143354Y-84892913D01*
X155143350Y-84892906D01*
X155057190Y-84777812D01*
X155057187Y-84777809D01*
X154942093Y-84691649D01*
X154942086Y-84691645D01*
X154807379Y-84641403D01*
X154807372Y-84641401D01*
X154747844Y-84635000D01*
X153450000Y-84635000D01*
X153450000Y-85915935D01*
X153421684Y-85904207D01*
X153274853Y-85875000D01*
X153125147Y-85875000D01*
X152978316Y-85904207D01*
X152950000Y-85915935D01*
X152950000Y-84635000D01*
X151652155Y-84635000D01*
X151592627Y-84641401D01*
X151592620Y-84641403D01*
X151457913Y-84691645D01*
X151457906Y-84691649D01*
X151342812Y-84777809D01*
X151342809Y-84777812D01*
X151256649Y-84892906D01*
X151256645Y-84892913D01*
X151206403Y-85027620D01*
X151206401Y-85027627D01*
X151200000Y-85087155D01*
X149888500Y-85087155D01*
X152490149Y-82485505D01*
X152551470Y-82452022D01*
X152597226Y-82450715D01*
X152690450Y-82465480D01*
X152753713Y-82475500D01*
X152753714Y-82475500D01*
X152966286Y-82475500D01*
X152966287Y-82475500D01*
X153176243Y-82442246D01*
X153378412Y-82376557D01*
X153567816Y-82280051D01*
X153703868Y-82181204D01*
X153739784Y-82155110D01*
X153739784Y-82155109D01*
X153739792Y-82155104D01*
X153853329Y-82041566D01*
X153914648Y-82008084D01*
X153914649Y-82008084D01*
X153984341Y-82013068D01*
G37*
G04 #@! TD.AperFunction*
G04 #@! TA.AperFunction,Conductor*
G36*
X126067947Y-100117735D02*
G01*
X126101431Y-100179059D01*
X126104265Y-100205416D01*
X126104265Y-101008095D01*
X126104264Y-101008113D01*
X126104264Y-101173819D01*
X126104263Y-101173819D01*
X126145188Y-101326550D01*
X126174123Y-101376665D01*
X126174124Y-101376669D01*
X126174125Y-101376669D01*
X126224244Y-101463479D01*
X126224246Y-101463482D01*
X126343114Y-101582350D01*
X126343120Y-101582355D01*
X127016241Y-102255476D01*
X127049726Y-102316799D01*
X127046492Y-102381473D01*
X127032753Y-102423757D01*
X126999499Y-102633714D01*
X126999380Y-102635237D01*
X126999172Y-102635781D01*
X126998738Y-102638525D01*
X126998161Y-102638433D01*
X126974492Y-102700524D01*
X126918258Y-102741991D01*
X126875763Y-102749500D01*
X120909500Y-102749500D01*
X120842461Y-102729815D01*
X120796706Y-102677011D01*
X120785500Y-102625500D01*
X120785500Y-101559725D01*
X120785499Y-100489498D01*
X120805184Y-100422460D01*
X120857987Y-100376705D01*
X120909494Y-100365499D01*
X125502872Y-100365499D01*
X125562483Y-100359091D01*
X125697331Y-100308796D01*
X125812546Y-100222546D01*
X125880999Y-100131103D01*
X125936932Y-100089234D01*
X126006624Y-100084250D01*
X126067947Y-100117735D01*
G37*
G04 #@! TD.AperFunction*
G04 #@! TA.AperFunction,Conductor*
G36*
X129279633Y-96271090D02*
G01*
X129326138Y-96300373D01*
X130077639Y-97051874D01*
X130077649Y-97051885D01*
X130081979Y-97056215D01*
X130081980Y-97056216D01*
X130193784Y-97168020D01*
X130193786Y-97168021D01*
X130193790Y-97168024D01*
X130330709Y-97247073D01*
X130330716Y-97247077D01*
X130442519Y-97277034D01*
X130483442Y-97288000D01*
X130483443Y-97288000D01*
X130811548Y-97288000D01*
X130821339Y-97290874D01*
X130831464Y-97289610D01*
X130854296Y-97300552D01*
X130878587Y-97307685D01*
X130886945Y-97316199D01*
X130894471Y-97319806D01*
X130917086Y-97346903D01*
X130979369Y-97447879D01*
X130997810Y-97515271D01*
X130979369Y-97578073D01*
X130889551Y-97723688D01*
X130889546Y-97723699D01*
X130835319Y-97887347D01*
X130825000Y-97988345D01*
X130825000Y-98087500D01*
X132471332Y-98087500D01*
X132503424Y-98091725D01*
X132515591Y-98094984D01*
X132532442Y-98099500D01*
X132532443Y-98099500D01*
X133201000Y-98099500D01*
X133209685Y-98102050D01*
X133218647Y-98100762D01*
X133242687Y-98111740D01*
X133268039Y-98119185D01*
X133273966Y-98126025D01*
X133282203Y-98129787D01*
X133296492Y-98152021D01*
X133313794Y-98171989D01*
X133316081Y-98182503D01*
X133319977Y-98188565D01*
X133325000Y-98223500D01*
X133325000Y-98463500D01*
X133305315Y-98530539D01*
X133252511Y-98576294D01*
X133201000Y-98587500D01*
X131536194Y-98587500D01*
X131469155Y-98567815D01*
X131467303Y-98566602D01*
X131377494Y-98506593D01*
X131377492Y-98506592D01*
X131213612Y-98438711D01*
X131213603Y-98438708D01*
X131039639Y-98404105D01*
X131039636Y-98404105D01*
X130862254Y-98404105D01*
X130862251Y-98404105D01*
X130688286Y-98438708D01*
X130688277Y-98438711D01*
X130646952Y-98455829D01*
X130577483Y-98463298D01*
X130515004Y-98432022D01*
X130479352Y-98371933D01*
X130475500Y-98341268D01*
X130475500Y-98070945D01*
X130475500Y-98070943D01*
X130449955Y-97975606D01*
X130434577Y-97918215D01*
X130394038Y-97848000D01*
X130364792Y-97797344D01*
X130355522Y-97781287D01*
X130355521Y-97781286D01*
X130355520Y-97781284D01*
X130243716Y-97669480D01*
X130243715Y-97669479D01*
X130239385Y-97665149D01*
X130239374Y-97665139D01*
X129100373Y-96526138D01*
X129066888Y-96464815D01*
X129067396Y-96409861D01*
X129077054Y-96369112D01*
X129111668Y-96308422D01*
X129169112Y-96277054D01*
X129209862Y-96267396D01*
X129279633Y-96271090D01*
G37*
G04 #@! TD.AperFunction*
G04 #@! TA.AperFunction,Conductor*
G36*
X112461406Y-73520185D02*
G01*
X112507161Y-73572989D01*
X112517105Y-73642147D01*
X112488080Y-73705703D01*
X112467252Y-73724819D01*
X112405207Y-73769896D01*
X112254890Y-73920213D01*
X112129951Y-74092179D01*
X112033444Y-74281585D01*
X111967753Y-74483760D01*
X111934500Y-74693713D01*
X111934500Y-74906286D01*
X111967753Y-75116239D01*
X112033444Y-75318414D01*
X112129951Y-75507820D01*
X112254890Y-75679786D01*
X112405213Y-75830109D01*
X112577179Y-75955048D01*
X112577181Y-75955049D01*
X112577184Y-75955051D01*
X112766588Y-76051557D01*
X112968757Y-76117246D01*
X113178713Y-76150500D01*
X113178714Y-76150500D01*
X113391286Y-76150500D01*
X113391287Y-76150500D01*
X113601243Y-76117246D01*
X113803412Y-76051557D01*
X113992816Y-75955051D01*
X114079471Y-75892093D01*
X114164784Y-75830110D01*
X114164784Y-75830109D01*
X114164792Y-75830104D01*
X114278329Y-75716566D01*
X114339648Y-75683084D01*
X114409340Y-75688068D01*
X114465274Y-75729939D01*
X114482189Y-75760917D01*
X114531202Y-75892328D01*
X114531206Y-75892335D01*
X114617452Y-76007544D01*
X114617455Y-76007547D01*
X114732664Y-76093793D01*
X114732671Y-76093797D01*
X114867517Y-76144091D01*
X114867516Y-76144091D01*
X114874444Y-76144835D01*
X114927127Y-76150500D01*
X116722872Y-76150499D01*
X116782483Y-76144091D01*
X116917331Y-76093796D01*
X117032546Y-76007546D01*
X117118796Y-75892331D01*
X117169091Y-75757483D01*
X117175500Y-75697873D01*
X117175499Y-74734174D01*
X117175499Y-73902129D01*
X117175498Y-73902123D01*
X117175471Y-73901876D01*
X117169091Y-73842517D01*
X117142145Y-73770272D01*
X117118797Y-73707671D01*
X117118793Y-73707665D01*
X117112165Y-73698810D01*
X117087748Y-73633346D01*
X117102600Y-73565073D01*
X117152005Y-73515668D01*
X117211432Y-73500500D01*
X120720218Y-73500500D01*
X120787257Y-73520185D01*
X120833012Y-73572989D01*
X120842956Y-73642147D01*
X120813931Y-73705703D01*
X120793103Y-73724818D01*
X120730540Y-73770272D01*
X120730535Y-73770276D01*
X120580276Y-73920535D01*
X120580272Y-73920540D01*
X120455379Y-74092442D01*
X120358904Y-74281782D01*
X120293242Y-74483870D01*
X120293242Y-74483873D01*
X120282769Y-74550000D01*
X121176988Y-74550000D01*
X121144075Y-74607007D01*
X121110000Y-74734174D01*
X121110000Y-74865826D01*
X121144075Y-74992993D01*
X121176988Y-75050000D01*
X120282769Y-75050000D01*
X120293242Y-75116126D01*
X120293242Y-75116129D01*
X120358904Y-75318217D01*
X120455379Y-75507557D01*
X120580272Y-75679459D01*
X120580276Y-75679464D01*
X120730535Y-75829723D01*
X120730540Y-75829727D01*
X120902442Y-75954620D01*
X121091782Y-76051095D01*
X121293871Y-76116757D01*
X121360000Y-76127231D01*
X121360000Y-75233012D01*
X121417007Y-75265925D01*
X121544174Y-75300000D01*
X121675826Y-75300000D01*
X121802993Y-75265925D01*
X121860000Y-75233012D01*
X121860000Y-76127230D01*
X121926126Y-76116757D01*
X121926129Y-76116757D01*
X122128217Y-76051095D01*
X122317557Y-75954620D01*
X122489458Y-75829728D01*
X122603521Y-75715665D01*
X122664844Y-75682180D01*
X122734536Y-75687164D01*
X122790470Y-75729035D01*
X122807385Y-75760013D01*
X122856645Y-75892086D01*
X122856649Y-75892093D01*
X122942809Y-76007187D01*
X122942812Y-76007190D01*
X123057906Y-76093350D01*
X123057913Y-76093354D01*
X123192620Y-76143596D01*
X123192627Y-76143598D01*
X123252155Y-76149999D01*
X123252172Y-76150000D01*
X123900000Y-76150000D01*
X123900000Y-75233012D01*
X123957007Y-75265925D01*
X124084174Y-75300000D01*
X124215826Y-75300000D01*
X124342993Y-75265925D01*
X124400000Y-75233012D01*
X124400000Y-76150000D01*
X125047828Y-76150000D01*
X125047844Y-76149999D01*
X125107372Y-76143598D01*
X125107379Y-76143596D01*
X125242086Y-76093354D01*
X125242093Y-76093350D01*
X125357187Y-76007190D01*
X125357190Y-76007187D01*
X125443350Y-75892093D01*
X125443354Y-75892086D01*
X125493596Y-75757379D01*
X125493598Y-75757372D01*
X125499999Y-75697844D01*
X125500000Y-75697827D01*
X125500000Y-75050000D01*
X124583012Y-75050000D01*
X124615925Y-74992993D01*
X124650000Y-74865826D01*
X124650000Y-74734174D01*
X124615925Y-74607007D01*
X124583012Y-74550000D01*
X125500000Y-74550000D01*
X125500000Y-73902172D01*
X125499999Y-73902155D01*
X125493598Y-73842627D01*
X125493596Y-73842620D01*
X125443354Y-73707913D01*
X125443353Y-73707911D01*
X125436540Y-73698810D01*
X125412124Y-73633345D01*
X125426976Y-73565072D01*
X125476382Y-73515667D01*
X125535808Y-73500500D01*
X156575500Y-73500500D01*
X156642539Y-73520185D01*
X156688294Y-73572989D01*
X156699500Y-73624500D01*
X156699500Y-79738568D01*
X156679815Y-79805607D01*
X156627011Y-79851362D01*
X156557853Y-79861306D01*
X156501190Y-79837835D01*
X156492334Y-79831206D01*
X156492328Y-79831202D01*
X156357482Y-79780908D01*
X156357483Y-79780908D01*
X156297883Y-79774501D01*
X156297881Y-79774500D01*
X156297873Y-79774500D01*
X156297864Y-79774500D01*
X154502129Y-79774500D01*
X154502123Y-79774501D01*
X154442516Y-79780908D01*
X154307671Y-79831202D01*
X154307664Y-79831206D01*
X154192455Y-79917452D01*
X154192452Y-79917455D01*
X154106206Y-80032664D01*
X154106203Y-80032669D01*
X154057189Y-80164083D01*
X154015317Y-80220016D01*
X153949853Y-80244433D01*
X153881580Y-80229581D01*
X153853326Y-80208430D01*
X153739786Y-80094890D01*
X153567820Y-79969951D01*
X153378414Y-79873444D01*
X153378413Y-79873443D01*
X153378412Y-79873443D01*
X153176243Y-79807754D01*
X153176241Y-79807753D01*
X153176240Y-79807753D01*
X153014957Y-79782208D01*
X152966287Y-79774500D01*
X152753713Y-79774500D01*
X152705042Y-79782208D01*
X152543760Y-79807753D01*
X152341585Y-79873444D01*
X152152179Y-79969951D01*
X151980213Y-80094890D01*
X151829890Y-80245213D01*
X151704949Y-80417182D01*
X151700484Y-80425946D01*
X151652509Y-80476742D01*
X151584688Y-80493536D01*
X151518553Y-80470998D01*
X151479516Y-80425946D01*
X151475050Y-80417182D01*
X151350109Y-80245213D01*
X151199786Y-80094890D01*
X151027820Y-79969951D01*
X150838414Y-79873444D01*
X150838413Y-79873443D01*
X150838412Y-79873443D01*
X150636243Y-79807754D01*
X150636241Y-79807753D01*
X150636240Y-79807753D01*
X150474957Y-79782208D01*
X150426287Y-79774500D01*
X150213713Y-79774500D01*
X150165042Y-79782208D01*
X150003760Y-79807753D01*
X149801585Y-79873444D01*
X149612185Y-79969948D01*
X149586898Y-79988320D01*
X149521091Y-80011798D01*
X149514015Y-80012000D01*
X148632052Y-80012000D01*
X148565013Y-79992315D01*
X148544371Y-79975681D01*
X148448351Y-79879661D01*
X148448350Y-79879660D01*
X148301516Y-79789092D01*
X148217158Y-79761138D01*
X148159714Y-79721366D01*
X148132891Y-79656850D01*
X148145206Y-79588074D01*
X148168479Y-79555755D01*
X150430520Y-77293716D01*
X150509577Y-77156784D01*
X150536256Y-77057216D01*
X150572620Y-76997559D01*
X150635467Y-76967030D01*
X150643400Y-76965958D01*
X150652797Y-76964999D01*
X150819334Y-76909814D01*
X150968656Y-76817712D01*
X151092712Y-76693656D01*
X151184814Y-76544334D01*
X151239999Y-76377797D01*
X151250500Y-76275009D01*
X151250499Y-75074992D01*
X151239999Y-74972203D01*
X151184814Y-74805666D01*
X151092712Y-74656344D01*
X150968656Y-74532288D01*
X150819334Y-74440186D01*
X150652797Y-74385001D01*
X150652795Y-74385000D01*
X150550010Y-74374500D01*
X149349998Y-74374500D01*
X149349981Y-74374501D01*
X149247203Y-74385000D01*
X149247200Y-74385001D01*
X149080668Y-74440185D01*
X149080663Y-74440187D01*
X148931342Y-74532289D01*
X148807289Y-74656342D01*
X148715187Y-74805663D01*
X148715186Y-74805666D01*
X148660001Y-74972203D01*
X148660001Y-74972204D01*
X148660000Y-74972204D01*
X148649500Y-75074983D01*
X148649500Y-76275001D01*
X148649501Y-76275018D01*
X148660000Y-76377796D01*
X148660001Y-76377799D01*
X148692739Y-76476593D01*
X148715186Y-76544334D01*
X148807288Y-76693656D01*
X148931344Y-76817712D01*
X148969013Y-76840946D01*
X149015737Y-76892891D01*
X149026960Y-76961854D01*
X148999117Y-77025936D01*
X148991597Y-77034165D01*
X146732682Y-79293080D01*
X146671359Y-79326565D01*
X146601667Y-79321581D01*
X146545734Y-79279709D01*
X146521643Y-79218001D01*
X146514680Y-79149847D01*
X146460453Y-78986199D01*
X146460448Y-78986188D01*
X146369947Y-78839465D01*
X146369944Y-78839461D01*
X146248038Y-78717555D01*
X146248034Y-78717552D01*
X146101311Y-78627051D01*
X146101300Y-78627046D01*
X145937652Y-78572819D01*
X145836654Y-78562500D01*
X145800000Y-78562500D01*
X145800000Y-79476000D01*
X145780315Y-79543039D01*
X145727511Y-79588794D01*
X145676000Y-79600000D01*
X145550000Y-79600000D01*
X145550000Y-79726000D01*
X145530315Y-79793039D01*
X145477511Y-79838794D01*
X145426000Y-79850000D01*
X144575001Y-79850000D01*
X144575001Y-79949154D01*
X144585319Y-80050152D01*
X144639546Y-80213800D01*
X144639551Y-80213811D01*
X144730052Y-80360534D01*
X144730055Y-80360538D01*
X144743982Y-80374465D01*
X144777467Y-80435788D01*
X144772483Y-80505480D01*
X144743984Y-80549825D01*
X144729661Y-80564148D01*
X144639093Y-80710981D01*
X144639092Y-80710984D01*
X144584826Y-80874747D01*
X144584826Y-80874748D01*
X144584825Y-80874748D01*
X144574500Y-80975815D01*
X144574500Y-81674169D01*
X144574501Y-81674187D01*
X144584825Y-81775252D01*
X144584826Y-81775255D01*
X144633117Y-81920986D01*
X144635519Y-81990814D01*
X144603092Y-82047671D01*
X143918321Y-82732442D01*
X143856998Y-82765927D01*
X143787306Y-82760943D01*
X143731373Y-82719071D01*
X143711087Y-82677673D01*
X143708336Y-82667682D01*
X143702674Y-82612247D01*
X143648408Y-82448484D01*
X143647659Y-82447270D01*
X143645122Y-82438053D01*
X143645663Y-82406181D01*
X143644567Y-82374318D01*
X143646252Y-82371486D01*
X143646308Y-82368193D01*
X143663990Y-82341678D01*
X143680298Y-82314275D01*
X143684293Y-82311234D01*
X143685074Y-82310064D01*
X143686849Y-82309289D01*
X143699579Y-82299602D01*
X143701513Y-82298408D01*
X143701516Y-82298408D01*
X143848350Y-82207840D01*
X143970340Y-82085850D01*
X144060908Y-81939016D01*
X144115174Y-81775253D01*
X144125500Y-81674177D01*
X144125499Y-80975824D01*
X144115174Y-80874747D01*
X144060908Y-80710984D01*
X143970340Y-80564150D01*
X143956017Y-80549827D01*
X143922532Y-80488504D01*
X143927516Y-80418812D01*
X143956021Y-80374460D01*
X143969947Y-80360535D01*
X144060448Y-80213811D01*
X144060453Y-80213800D01*
X144114680Y-80050152D01*
X144124999Y-79949154D01*
X144125000Y-79949141D01*
X144125000Y-79850000D01*
X143098500Y-79850000D01*
X143031461Y-79830315D01*
X142985706Y-79777511D01*
X142974500Y-79726000D01*
X142974500Y-79474000D01*
X142994185Y-79406961D01*
X143046989Y-79361206D01*
X143098500Y-79350000D01*
X144124999Y-79350000D01*
X144124999Y-79250861D01*
X144124998Y-79250845D01*
X144575000Y-79250845D01*
X144575000Y-79350000D01*
X145300000Y-79350000D01*
X145300000Y-78562500D01*
X145263361Y-78562500D01*
X145263343Y-78562501D01*
X145162347Y-78572819D01*
X144998699Y-78627046D01*
X144998688Y-78627051D01*
X144851965Y-78717552D01*
X144851961Y-78717555D01*
X144730055Y-78839461D01*
X144730052Y-78839465D01*
X144639551Y-78986188D01*
X144639546Y-78986199D01*
X144585319Y-79149847D01*
X144575000Y-79250845D01*
X144124998Y-79250845D01*
X144124998Y-79250844D01*
X144114680Y-79149847D01*
X144060453Y-78986199D01*
X144060450Y-78986192D01*
X144028345Y-78934143D01*
X144009904Y-78866750D01*
X144030826Y-78800087D01*
X144084468Y-78755317D01*
X144121281Y-78745687D01*
X144175253Y-78740174D01*
X144339016Y-78685908D01*
X144485850Y-78595340D01*
X144607840Y-78473350D01*
X144698408Y-78326516D01*
X144752674Y-78162753D01*
X144763000Y-78061677D01*
X144762999Y-77488324D01*
X144752674Y-77387247D01*
X144752672Y-77387243D01*
X144752573Y-77386266D01*
X144765342Y-77317573D01*
X144788247Y-77285986D01*
X145105158Y-76969075D01*
X145166479Y-76935592D01*
X145231151Y-76938825D01*
X145245466Y-76943477D01*
X145447648Y-76975500D01*
X145447649Y-76975500D01*
X145652351Y-76975500D01*
X145652352Y-76975500D01*
X145854534Y-76943477D01*
X146049219Y-76880220D01*
X146231610Y-76787287D01*
X146360482Y-76693657D01*
X146397213Y-76666971D01*
X146397215Y-76666968D01*
X146397219Y-76666966D01*
X146541966Y-76522219D01*
X146541968Y-76522215D01*
X146541971Y-76522213D01*
X146646892Y-76377799D01*
X146662287Y-76356610D01*
X146755220Y-76174219D01*
X146818477Y-75979534D01*
X146850500Y-75777352D01*
X146850500Y-75572648D01*
X146840232Y-75507820D01*
X146818477Y-75370465D01*
X146755218Y-75175776D01*
X146703865Y-75074991D01*
X146662287Y-74993390D01*
X146646892Y-74972200D01*
X146541971Y-74827786D01*
X146397213Y-74683028D01*
X146231613Y-74562715D01*
X146231612Y-74562714D01*
X146231610Y-74562713D01*
X146171898Y-74532288D01*
X146049223Y-74469781D01*
X145854534Y-74406522D01*
X145679995Y-74378878D01*
X145652352Y-74374500D01*
X145447648Y-74374500D01*
X145423329Y-74378351D01*
X145245465Y-74406522D01*
X145050776Y-74469781D01*
X144868386Y-74562715D01*
X144702786Y-74683028D01*
X144558028Y-74827786D01*
X144437715Y-74993386D01*
X144344781Y-75175776D01*
X144281522Y-75370465D01*
X144249500Y-75572648D01*
X144249500Y-75777351D01*
X144281522Y-75979534D01*
X144286173Y-75993848D01*
X144288165Y-76063690D01*
X144255921Y-76119842D01*
X143612582Y-76763181D01*
X143551259Y-76796666D01*
X143524903Y-76799500D01*
X143475832Y-76799500D01*
X143475812Y-76799501D01*
X143374747Y-76809825D01*
X143374744Y-76809826D01*
X143253590Y-76849973D01*
X143183761Y-76852375D01*
X143123720Y-76816643D01*
X143092527Y-76754122D01*
X143100088Y-76684663D01*
X143109045Y-76667175D01*
X143184814Y-76544334D01*
X143239999Y-76377797D01*
X143250500Y-76275009D01*
X143250499Y-75074992D01*
X143239999Y-74972203D01*
X143184814Y-74805666D01*
X143092712Y-74656344D01*
X142968656Y-74532288D01*
X142819334Y-74440186D01*
X142652797Y-74385001D01*
X142652795Y-74385000D01*
X142550010Y-74374500D01*
X141349998Y-74374500D01*
X141349981Y-74374501D01*
X141247203Y-74385000D01*
X141247200Y-74385001D01*
X141080668Y-74440185D01*
X141080663Y-74440187D01*
X140931342Y-74532289D01*
X140807289Y-74656342D01*
X140715187Y-74805663D01*
X140715186Y-74805666D01*
X140660001Y-74972203D01*
X140660001Y-74972204D01*
X140660000Y-74972204D01*
X140649500Y-75074983D01*
X140649500Y-76275001D01*
X140649501Y-76275018D01*
X140660000Y-76377796D01*
X140660001Y-76377799D01*
X140692739Y-76476593D01*
X140715186Y-76544334D01*
X140790951Y-76667170D01*
X140807289Y-76693657D01*
X140931344Y-76817712D01*
X141076107Y-76907002D01*
X141122832Y-76958950D01*
X141134055Y-77027912D01*
X141116550Y-77077637D01*
X141026595Y-77223477D01*
X141026592Y-77223484D01*
X140972326Y-77387247D01*
X140972326Y-77387248D01*
X140972325Y-77387248D01*
X140962000Y-77488315D01*
X140962000Y-78061669D01*
X140962001Y-78061687D01*
X140972325Y-78162752D01*
X141026592Y-78326515D01*
X141026593Y-78326518D01*
X141117161Y-78473351D01*
X141163681Y-78519871D01*
X141197166Y-78581194D01*
X141200000Y-78607552D01*
X141200000Y-79350000D01*
X141225500Y-79350000D01*
X141292539Y-79369685D01*
X141338294Y-79422489D01*
X141349500Y-79474000D01*
X141349500Y-79726000D01*
X141329815Y-79793039D01*
X141277011Y-79838794D01*
X141225500Y-79850000D01*
X138999500Y-79850000D01*
X138932461Y-79830315D01*
X138886706Y-79777511D01*
X138875500Y-79726000D01*
X138875500Y-79425862D01*
X138895185Y-79358823D01*
X138900000Y-79352847D01*
X138900000Y-79350000D01*
X139400000Y-79350000D01*
X140700000Y-79350000D01*
X140700000Y-78562500D01*
X140663361Y-78562500D01*
X140663343Y-78562501D01*
X140562347Y-78572819D01*
X140398699Y-78627046D01*
X140398688Y-78627051D01*
X140251965Y-78717552D01*
X140251961Y-78717555D01*
X140137681Y-78831836D01*
X140076358Y-78865321D01*
X140006666Y-78860337D01*
X139962319Y-78831836D01*
X139848038Y-78717555D01*
X139848034Y-78717552D01*
X139701311Y-78627051D01*
X139701300Y-78627046D01*
X139537652Y-78572819D01*
X139436654Y-78562500D01*
X139400000Y-78562500D01*
X139400000Y-79350000D01*
X138900000Y-79350000D01*
X138900000Y-78607552D01*
X138907209Y-78582998D01*
X138910500Y-78557614D01*
X138917794Y-78546950D01*
X138919685Y-78540513D01*
X138929167Y-78527661D01*
X138932577Y-78523612D01*
X138982840Y-78473350D01*
X139073408Y-78326516D01*
X139127674Y-78162753D01*
X139138000Y-78061677D01*
X139137999Y-77488324D01*
X139127674Y-77387247D01*
X139073408Y-77223484D01*
X138982840Y-77076650D01*
X138860850Y-76954660D01*
X138855743Y-76949553D01*
X138857637Y-76947658D01*
X138824444Y-76900752D01*
X138821325Y-76830952D01*
X138856438Y-76770547D01*
X138868847Y-76760232D01*
X138997219Y-76666966D01*
X139141966Y-76522219D01*
X139141968Y-76522215D01*
X139141971Y-76522213D01*
X139246892Y-76377799D01*
X139262287Y-76356610D01*
X139355220Y-76174219D01*
X139418477Y-75979534D01*
X139450500Y-75777352D01*
X139450500Y-75572648D01*
X139440232Y-75507820D01*
X139418477Y-75370465D01*
X139355218Y-75175776D01*
X139303865Y-75074991D01*
X139262287Y-74993390D01*
X139246892Y-74972200D01*
X139141971Y-74827786D01*
X138997213Y-74683028D01*
X138831613Y-74562715D01*
X138831612Y-74562714D01*
X138831610Y-74562713D01*
X138771898Y-74532288D01*
X138649223Y-74469781D01*
X138454534Y-74406522D01*
X138279995Y-74378878D01*
X138252352Y-74374500D01*
X138047648Y-74374500D01*
X138023329Y-74378351D01*
X137845465Y-74406522D01*
X137650776Y-74469781D01*
X137468386Y-74562715D01*
X137302786Y-74683028D01*
X137158028Y-74827786D01*
X137037715Y-74993386D01*
X136944781Y-75175776D01*
X136881522Y-75370465D01*
X136849500Y-75572648D01*
X136849500Y-75777351D01*
X136881522Y-75979534D01*
X136944781Y-76174223D01*
X137037715Y-76356613D01*
X137158028Y-76522213D01*
X137302784Y-76666969D01*
X137339518Y-76693657D01*
X137431140Y-76760224D01*
X137442610Y-76775097D01*
X137457631Y-76786376D01*
X137463504Y-76802192D01*
X137473807Y-76815553D01*
X137475414Y-76834266D01*
X137481953Y-76851875D01*
X137478342Y-76868357D01*
X137479786Y-76885166D01*
X137471021Y-76901776D01*
X137467002Y-76920127D01*
X137451906Y-76938005D01*
X137447181Y-76946961D01*
X137445810Y-76948350D01*
X137440019Y-76954123D01*
X137439150Y-76954660D01*
X137325181Y-77068629D01*
X137325054Y-77068756D01*
X137294487Y-77085388D01*
X137263858Y-77102114D01*
X137263764Y-77102107D01*
X137263682Y-77102152D01*
X137228976Y-77099619D01*
X137194166Y-77097130D01*
X137194076Y-77097072D01*
X137193998Y-77097067D01*
X137193582Y-77096754D01*
X137149819Y-77068629D01*
X137035851Y-76954661D01*
X137035850Y-76954660D01*
X136925499Y-76886595D01*
X136889018Y-76864093D01*
X136889013Y-76864091D01*
X136887569Y-76863612D01*
X136725253Y-76809826D01*
X136725251Y-76809825D01*
X136624184Y-76799500D01*
X136624177Y-76799500D01*
X136250097Y-76799500D01*
X136183058Y-76779815D01*
X136162416Y-76763181D01*
X135875828Y-76476593D01*
X135842343Y-76415270D01*
X135840151Y-76376309D01*
X135842163Y-76356613D01*
X135850500Y-76275009D01*
X135850499Y-75074992D01*
X135839999Y-74972203D01*
X135784814Y-74805666D01*
X135692712Y-74656344D01*
X135568656Y-74532288D01*
X135419334Y-74440186D01*
X135252797Y-74385001D01*
X135252795Y-74385000D01*
X135150010Y-74374500D01*
X133949998Y-74374500D01*
X133949981Y-74374501D01*
X133847203Y-74385000D01*
X133847200Y-74385001D01*
X133680668Y-74440185D01*
X133680663Y-74440187D01*
X133531342Y-74532289D01*
X133407289Y-74656342D01*
X133315187Y-74805663D01*
X133315186Y-74805666D01*
X133260001Y-74972203D01*
X133260001Y-74972204D01*
X133260000Y-74972204D01*
X133249500Y-75074983D01*
X133249500Y-76275001D01*
X133249501Y-76275018D01*
X133260000Y-76377796D01*
X133260001Y-76377799D01*
X133292739Y-76476593D01*
X133315186Y-76544334D01*
X133407288Y-76693656D01*
X133531344Y-76817712D01*
X133680666Y-76909814D01*
X133847203Y-76964999D01*
X133949991Y-76975500D01*
X134624902Y-76975499D01*
X134691941Y-76995183D01*
X134712583Y-77011818D01*
X135300681Y-77599916D01*
X135334166Y-77661239D01*
X135337000Y-77687597D01*
X135337000Y-78061669D01*
X135337001Y-78061687D01*
X135347325Y-78162752D01*
X135383609Y-78272249D01*
X135401592Y-78326516D01*
X135492160Y-78473350D01*
X135614150Y-78595340D01*
X135760984Y-78685908D01*
X135924747Y-78740174D01*
X135978719Y-78745687D01*
X136043409Y-78772082D01*
X136083561Y-78829262D01*
X136086425Y-78899073D01*
X136071655Y-78934141D01*
X136039550Y-78986190D01*
X136039546Y-78986199D01*
X135985319Y-79149847D01*
X135975000Y-79250845D01*
X135975000Y-79350000D01*
X137149500Y-79350000D01*
X137216539Y-79369685D01*
X137262294Y-79422489D01*
X137273500Y-79474000D01*
X137273500Y-79726000D01*
X137253815Y-79793039D01*
X137201011Y-79838794D01*
X137149500Y-79850000D01*
X135975001Y-79850000D01*
X135975001Y-79949154D01*
X135985319Y-80050152D01*
X136039546Y-80213800D01*
X136039551Y-80213811D01*
X136130052Y-80360534D01*
X136130055Y-80360538D01*
X136143982Y-80374465D01*
X136177467Y-80435788D01*
X136172483Y-80505480D01*
X136143984Y-80549825D01*
X136129661Y-80564148D01*
X136039093Y-80710981D01*
X136039092Y-80710984D01*
X135984826Y-80874747D01*
X135984826Y-80874748D01*
X135984825Y-80874748D01*
X135974500Y-80975815D01*
X135974500Y-81674169D01*
X135974501Y-81674187D01*
X135984825Y-81775252D01*
X136003902Y-81832820D01*
X136033117Y-81920986D01*
X136039092Y-81939015D01*
X136039093Y-81939018D01*
X136060350Y-81973481D01*
X136129660Y-82085850D01*
X136251650Y-82207840D01*
X136398484Y-82298408D01*
X136429760Y-82308772D01*
X136487202Y-82348541D01*
X136514026Y-82413056D01*
X136508460Y-82465480D01*
X136459826Y-82612247D01*
X136459825Y-82612248D01*
X136449500Y-82713315D01*
X136449500Y-83286669D01*
X136449501Y-83286687D01*
X136459825Y-83387752D01*
X136481935Y-83454474D01*
X136514092Y-83551516D01*
X136604660Y-83698350D01*
X136726650Y-83820340D01*
X136873484Y-83910908D01*
X137037247Y-83965174D01*
X137138323Y-83975500D01*
X137562402Y-83975499D01*
X137629441Y-83995183D01*
X137650083Y-84011818D01*
X137976084Y-84337819D01*
X138009569Y-84399142D01*
X138004585Y-84468834D01*
X137962713Y-84524767D01*
X137897249Y-84549184D01*
X137888403Y-84549500D01*
X135162597Y-84549500D01*
X135095558Y-84529815D01*
X135074916Y-84513181D01*
X134336818Y-83775083D01*
X134303333Y-83713760D01*
X134300499Y-83687402D01*
X134300499Y-83313330D01*
X134300498Y-83313313D01*
X134290174Y-83212247D01*
X134256725Y-83111306D01*
X134235908Y-83048484D01*
X134145340Y-82901650D01*
X134023350Y-82779660D01*
X133904442Y-82706317D01*
X133876518Y-82689093D01*
X133876513Y-82689091D01*
X133837493Y-82676161D01*
X133712753Y-82634826D01*
X133712751Y-82634825D01*
X133611678Y-82624500D01*
X133013330Y-82624500D01*
X133013312Y-82624501D01*
X132912247Y-82634825D01*
X132748484Y-82689092D01*
X132748481Y-82689093D01*
X132601648Y-82779661D01*
X132487681Y-82893629D01*
X132426358Y-82927114D01*
X132356666Y-82922130D01*
X132312319Y-82893629D01*
X132198351Y-82779661D01*
X132198350Y-82779660D01*
X132079442Y-82706317D01*
X132051518Y-82689093D01*
X132051513Y-82689091D01*
X132012493Y-82676161D01*
X131887753Y-82634826D01*
X131887751Y-82634825D01*
X131786678Y-82624500D01*
X131188330Y-82624500D01*
X131188312Y-82624501D01*
X131087247Y-82634825D01*
X130923484Y-82689092D01*
X130923481Y-82689093D01*
X130776648Y-82779661D01*
X130654659Y-82901650D01*
X130630638Y-82940596D01*
X130578690Y-82987321D01*
X130525099Y-82999500D01*
X126079499Y-82999500D01*
X126012460Y-82979815D01*
X125966705Y-82927011D01*
X125955499Y-82875500D01*
X125955499Y-82577129D01*
X125955498Y-82577123D01*
X125955497Y-82577116D01*
X125949091Y-82517517D01*
X125942758Y-82500538D01*
X125912269Y-82418793D01*
X125904637Y-82398332D01*
X125899654Y-82328642D01*
X125904638Y-82311667D01*
X125949091Y-82192483D01*
X125955500Y-82132873D01*
X125955499Y-80037128D01*
X125949103Y-79977627D01*
X125949091Y-79977516D01*
X125904638Y-79858333D01*
X125899654Y-79788642D01*
X125904638Y-79771667D01*
X125949091Y-79652482D01*
X125949091Y-79652481D01*
X125955500Y-79592873D01*
X125955499Y-77497128D01*
X125949091Y-77437517D01*
X125898796Y-77302669D01*
X125898795Y-77302668D01*
X125898793Y-77302664D01*
X125812547Y-77187455D01*
X125812544Y-77187452D01*
X125697335Y-77101206D01*
X125697328Y-77101202D01*
X125562482Y-77050908D01*
X125562483Y-77050908D01*
X125502883Y-77044501D01*
X125502881Y-77044500D01*
X125502873Y-77044500D01*
X125502864Y-77044500D01*
X120907129Y-77044500D01*
X120907123Y-77044501D01*
X120847516Y-77050908D01*
X120712671Y-77101202D01*
X120712664Y-77101206D01*
X120597455Y-77187452D01*
X120597452Y-77187455D01*
X120511206Y-77302664D01*
X120511202Y-77302671D01*
X120460908Y-77437517D01*
X120455446Y-77488324D01*
X120454501Y-77497123D01*
X120454500Y-77497135D01*
X120454500Y-79592870D01*
X120454501Y-79592876D01*
X120460908Y-79652483D01*
X120505361Y-79771667D01*
X120510345Y-79841359D01*
X120505361Y-79858333D01*
X120460908Y-79977517D01*
X120454980Y-80032664D01*
X120454501Y-80037123D01*
X120454500Y-80037135D01*
X120454500Y-82132870D01*
X120454501Y-82132876D01*
X120460908Y-82192483D01*
X120505361Y-82311667D01*
X120510345Y-82381359D01*
X120505361Y-82398333D01*
X120460908Y-82517517D01*
X120454501Y-82577116D01*
X120454501Y-82577123D01*
X120454500Y-82577135D01*
X120454500Y-84672870D01*
X120454501Y-84672876D01*
X120460908Y-84732483D01*
X120505361Y-84851667D01*
X120510345Y-84921359D01*
X120505361Y-84938333D01*
X120460908Y-85057517D01*
X120455727Y-85105715D01*
X120454501Y-85117123D01*
X120454500Y-85117135D01*
X120454500Y-87212870D01*
X120454501Y-87212876D01*
X120460908Y-87272483D01*
X120505361Y-87391667D01*
X120510345Y-87461359D01*
X120505361Y-87478333D01*
X120460908Y-87597517D01*
X120454501Y-87657116D01*
X120454501Y-87657123D01*
X120454500Y-87657135D01*
X120454500Y-89752870D01*
X120454501Y-89752876D01*
X120460908Y-89812483D01*
X120505361Y-89931667D01*
X120510345Y-90001359D01*
X120505361Y-90018333D01*
X120460908Y-90137517D01*
X120454501Y-90197116D01*
X120454501Y-90197123D01*
X120454500Y-90197135D01*
X120454500Y-92292870D01*
X120454501Y-92292876D01*
X120460908Y-92352483D01*
X120505361Y-92471667D01*
X120510345Y-92541359D01*
X120505361Y-92558333D01*
X120460908Y-92677517D01*
X120457129Y-92712672D01*
X120454501Y-92737123D01*
X120454500Y-92737135D01*
X120454500Y-94832870D01*
X120454501Y-94832876D01*
X120460908Y-94892483D01*
X120505361Y-95011667D01*
X120507245Y-95038023D01*
X120512863Y-95063845D01*
X120510025Y-95076889D01*
X120510345Y-95081359D01*
X120505361Y-95098333D01*
X120460418Y-95218833D01*
X120418547Y-95274766D01*
X120353083Y-95299184D01*
X120344236Y-95299500D01*
X120271155Y-95299500D01*
X120116510Y-95330261D01*
X120116498Y-95330264D01*
X119970822Y-95390604D01*
X119970820Y-95390605D01*
X119968885Y-95391899D01*
X119967717Y-95392264D01*
X119965451Y-95393476D01*
X119965221Y-95393045D01*
X119902206Y-95412773D01*
X119834827Y-95394285D01*
X119831115Y-95391899D01*
X119829179Y-95390605D01*
X119829177Y-95390604D01*
X119683501Y-95330264D01*
X119683489Y-95330261D01*
X119528845Y-95299500D01*
X119528842Y-95299500D01*
X119371158Y-95299500D01*
X119371155Y-95299500D01*
X119216510Y-95330261D01*
X119216498Y-95330264D01*
X119075377Y-95388718D01*
X119005908Y-95396187D01*
X118959034Y-95377259D01*
X118904176Y-95340604D01*
X118758501Y-95280264D01*
X118758489Y-95280261D01*
X118603845Y-95249500D01*
X118603842Y-95249500D01*
X118446158Y-95249500D01*
X118446155Y-95249500D01*
X118291510Y-95280261D01*
X118291498Y-95280264D01*
X118145827Y-95340602D01*
X118145814Y-95340609D01*
X118014711Y-95428210D01*
X118014707Y-95428213D01*
X117903213Y-95539707D01*
X117903210Y-95539711D01*
X117884446Y-95567794D01*
X117830833Y-95612599D01*
X117761508Y-95621306D01*
X117698481Y-95591151D01*
X117693663Y-95586584D01*
X117610292Y-95503213D01*
X117610288Y-95503210D01*
X117479185Y-95415609D01*
X117479172Y-95415602D01*
X117333501Y-95355264D01*
X117333489Y-95355261D01*
X117178845Y-95324500D01*
X117178842Y-95324500D01*
X117021158Y-95324500D01*
X117021155Y-95324500D01*
X116866510Y-95355261D01*
X116866498Y-95355264D01*
X116720827Y-95415602D01*
X116720814Y-95415609D01*
X116589711Y-95503210D01*
X116589707Y-95503213D01*
X116478213Y-95614707D01*
X116478210Y-95614711D01*
X116390609Y-95745814D01*
X116390602Y-95745827D01*
X116330264Y-95891498D01*
X116330261Y-95891508D01*
X116299362Y-96046848D01*
X116282500Y-96089007D01*
X116275145Y-96100618D01*
X116264480Y-96111284D01*
X116225476Y-96178842D01*
X116224210Y-96181034D01*
X116224206Y-96181041D01*
X116185423Y-96248214D01*
X116177696Y-96277053D01*
X116144499Y-96400943D01*
X116144499Y-96400945D01*
X116144499Y-96569046D01*
X116144500Y-96569059D01*
X116144500Y-97580500D01*
X116124815Y-97647539D01*
X116072011Y-97693294D01*
X116020500Y-97704500D01*
X115697130Y-97704500D01*
X115697123Y-97704501D01*
X115637516Y-97710908D01*
X115518333Y-97755361D01*
X115448641Y-97760345D01*
X115431667Y-97755361D01*
X115312482Y-97710908D01*
X115312483Y-97710908D01*
X115252883Y-97704501D01*
X115252881Y-97704500D01*
X115252873Y-97704500D01*
X115252864Y-97704500D01*
X113157129Y-97704500D01*
X113157123Y-97704501D01*
X113097516Y-97710908D01*
X112978333Y-97755361D01*
X112908641Y-97760345D01*
X112891667Y-97755361D01*
X112772482Y-97710908D01*
X112772483Y-97710908D01*
X112712883Y-97704501D01*
X112712881Y-97704500D01*
X112712873Y-97704500D01*
X112712864Y-97704500D01*
X110617129Y-97704500D01*
X110617123Y-97704501D01*
X110557516Y-97710908D01*
X110438333Y-97755361D01*
X110368641Y-97760345D01*
X110351667Y-97755361D01*
X110232482Y-97710908D01*
X110232483Y-97710908D01*
X110172883Y-97704501D01*
X110172881Y-97704500D01*
X110172873Y-97704500D01*
X110172864Y-97704500D01*
X108077129Y-97704500D01*
X108077121Y-97704501D01*
X108027213Y-97709866D01*
X107958454Y-97697459D01*
X107907318Y-97649847D01*
X107890040Y-97582147D01*
X107897779Y-97543245D01*
X107939091Y-97432483D01*
X107945500Y-97372873D01*
X107945499Y-95277128D01*
X107940299Y-95228757D01*
X107939091Y-95217516D01*
X107894638Y-95098333D01*
X107889654Y-95028642D01*
X107894638Y-95011667D01*
X107900124Y-94996958D01*
X107939091Y-94892483D01*
X107945500Y-94832873D01*
X107945499Y-92737128D01*
X107939091Y-92677517D01*
X107894637Y-92558332D01*
X107889654Y-92488642D01*
X107894638Y-92471667D01*
X107939091Y-92352483D01*
X107945500Y-92292873D01*
X107945499Y-90197128D01*
X107939091Y-90137517D01*
X107894637Y-90018332D01*
X107889654Y-89948642D01*
X107894638Y-89931667D01*
X107896331Y-89927128D01*
X107939091Y-89812483D01*
X107945500Y-89752873D01*
X107945499Y-87657128D01*
X107939091Y-87597517D01*
X107899636Y-87491734D01*
X107894653Y-87422048D01*
X107899634Y-87405082D01*
X107949091Y-87272483D01*
X107955500Y-87212873D01*
X107955499Y-85117128D01*
X107949091Y-85057517D01*
X107945672Y-85048351D01*
X107915995Y-84968782D01*
X107904637Y-84938332D01*
X107899654Y-84868642D01*
X107904638Y-84851667D01*
X107915324Y-84823016D01*
X107949091Y-84732483D01*
X107955500Y-84672873D01*
X107955500Y-84641086D01*
X107975185Y-84574047D01*
X108027989Y-84528292D01*
X108097147Y-84518348D01*
X108160703Y-84547373D01*
X108182601Y-84572194D01*
X108186621Y-84578210D01*
X108200537Y-84599037D01*
X108325961Y-84724461D01*
X108325965Y-84724464D01*
X108473446Y-84823009D01*
X108473459Y-84823016D01*
X108555457Y-84856980D01*
X108637334Y-84890894D01*
X108637336Y-84890894D01*
X108637341Y-84890896D01*
X108811304Y-84925499D01*
X108811307Y-84925500D01*
X108811309Y-84925500D01*
X108988693Y-84925500D01*
X108988694Y-84925499D01*
X109046682Y-84913964D01*
X109162658Y-84890896D01*
X109162661Y-84890894D01*
X109162666Y-84890894D01*
X109326547Y-84823013D01*
X109474035Y-84724464D01*
X109599464Y-84599035D01*
X109698013Y-84451547D01*
X109765894Y-84287666D01*
X109768814Y-84272989D01*
X109788964Y-84171682D01*
X109800500Y-84113691D01*
X109800500Y-83936309D01*
X109800500Y-83936306D01*
X109800499Y-83936304D01*
X109765895Y-83762341D01*
X109765894Y-83762334D01*
X109723485Y-83659951D01*
X109716017Y-83590484D01*
X109723484Y-83565051D01*
X109765894Y-83462666D01*
X109800500Y-83288691D01*
X109800500Y-83111309D01*
X109800500Y-83111306D01*
X109800499Y-83111304D01*
X109765896Y-82937341D01*
X109765893Y-82937332D01*
X109698016Y-82773459D01*
X109698009Y-82773446D01*
X109599464Y-82625965D01*
X109599461Y-82625961D01*
X109474038Y-82500538D01*
X109474034Y-82500535D01*
X109326553Y-82401990D01*
X109326540Y-82401983D01*
X109162667Y-82334106D01*
X109162658Y-82334103D01*
X108988694Y-82299500D01*
X108988691Y-82299500D01*
X108811309Y-82299500D01*
X108811306Y-82299500D01*
X108637341Y-82334103D01*
X108637332Y-82334106D01*
X108473459Y-82401983D01*
X108473446Y-82401990D01*
X108325965Y-82500535D01*
X108325961Y-82500538D01*
X108200538Y-82625961D01*
X108200533Y-82625967D01*
X108182600Y-82652806D01*
X108128987Y-82697611D01*
X108059662Y-82706317D01*
X107996635Y-82676161D01*
X107959917Y-82616718D01*
X107955499Y-82583914D01*
X107955499Y-82577129D01*
X107955498Y-82577123D01*
X107955497Y-82577116D01*
X107949091Y-82517517D01*
X107942758Y-82500538D01*
X107899371Y-82384211D01*
X107894387Y-82314520D01*
X107899372Y-82297543D01*
X107938596Y-82192380D01*
X107938598Y-82192372D01*
X107944999Y-82132844D01*
X107945000Y-82132827D01*
X107945000Y-80037172D01*
X107944999Y-80037155D01*
X107938598Y-79977627D01*
X107938597Y-79977623D01*
X107894371Y-79859049D01*
X107889387Y-79789357D01*
X107894367Y-79772393D01*
X107939091Y-79652483D01*
X107945500Y-79592873D01*
X107945499Y-77497128D01*
X107939091Y-77437517D01*
X107888796Y-77302669D01*
X107888795Y-77302668D01*
X107888793Y-77302664D01*
X107802547Y-77187455D01*
X107802544Y-77187452D01*
X107687335Y-77101206D01*
X107687328Y-77101202D01*
X107552482Y-77050908D01*
X107552483Y-77050908D01*
X107492883Y-77044501D01*
X107492881Y-77044500D01*
X107492873Y-77044500D01*
X107492865Y-77044500D01*
X106019500Y-77044500D01*
X105952461Y-77024815D01*
X105906706Y-76972011D01*
X105895500Y-76920500D01*
X105895500Y-76596517D01*
X105915185Y-76529478D01*
X105931815Y-76508840D01*
X106228837Y-76211817D01*
X106290160Y-76178333D01*
X106316518Y-76175499D01*
X107522871Y-76175499D01*
X107522872Y-76175499D01*
X107582483Y-76169091D01*
X107717331Y-76118796D01*
X107832546Y-76032546D01*
X107918796Y-75917331D01*
X107969091Y-75782483D01*
X107975500Y-75722873D01*
X107975499Y-73927128D01*
X107969091Y-73867517D01*
X107967810Y-73864083D01*
X107918797Y-73732671D01*
X107918795Y-73732668D01*
X107893450Y-73698811D01*
X107869033Y-73633346D01*
X107883885Y-73565074D01*
X107933290Y-73515668D01*
X107992717Y-73500500D01*
X112394367Y-73500500D01*
X112461406Y-73520185D01*
G37*
G04 #@! TD.AperFunction*
G04 #@! TA.AperFunction,Conductor*
G36*
X139152127Y-86375500D02*
G01*
X139547872Y-86375499D01*
X139547873Y-86375498D01*
X139547885Y-86375498D01*
X139586744Y-86371320D01*
X139613252Y-86371320D01*
X139652127Y-86375500D01*
X140047872Y-86375499D01*
X140047873Y-86375498D01*
X140047885Y-86375498D01*
X140086744Y-86371320D01*
X140113252Y-86371320D01*
X140152127Y-86375500D01*
X140547872Y-86375499D01*
X140547873Y-86375498D01*
X140547885Y-86375498D01*
X140586744Y-86371320D01*
X140613252Y-86371320D01*
X140652127Y-86375500D01*
X141047872Y-86375499D01*
X141047873Y-86375498D01*
X141047885Y-86375498D01*
X141086744Y-86371320D01*
X141113252Y-86371320D01*
X141152127Y-86375500D01*
X141547872Y-86375499D01*
X141547873Y-86375498D01*
X141547885Y-86375498D01*
X141586744Y-86371320D01*
X141613252Y-86371320D01*
X141652127Y-86375500D01*
X142047872Y-86375499D01*
X142047873Y-86375498D01*
X142047885Y-86375498D01*
X142086744Y-86371320D01*
X142113252Y-86371320D01*
X142152127Y-86375500D01*
X142475500Y-86375499D01*
X142542539Y-86395183D01*
X142588294Y-86447987D01*
X142599500Y-86499499D01*
X142599500Y-86822868D01*
X142599501Y-86822878D01*
X142603679Y-86861745D01*
X142603679Y-86888250D01*
X142599500Y-86927122D01*
X142599500Y-87322869D01*
X142599501Y-87322878D01*
X142603679Y-87361745D01*
X142603679Y-87388250D01*
X142599500Y-87427122D01*
X142599500Y-87822869D01*
X142599501Y-87822880D01*
X142602289Y-87848822D01*
X142602291Y-87848827D01*
X142605909Y-87882483D01*
X142656204Y-88017331D01*
X142672524Y-88039132D01*
X142672525Y-88039134D01*
X142700639Y-88076688D01*
X142725057Y-88142152D01*
X142710206Y-88210425D01*
X142660802Y-88259831D01*
X142601373Y-88275000D01*
X142600000Y-88275000D01*
X142600000Y-88322835D01*
X142604183Y-88361748D01*
X142604183Y-88388252D01*
X142600000Y-88427164D01*
X142600000Y-88475000D01*
X143675000Y-88475000D01*
X143675000Y-88399499D01*
X143677550Y-88390813D01*
X143676262Y-88381852D01*
X143687240Y-88357811D01*
X143694685Y-88332460D01*
X143701525Y-88326532D01*
X143705287Y-88318296D01*
X143727521Y-88304006D01*
X143747489Y-88286705D01*
X143758003Y-88284417D01*
X143764065Y-88280522D01*
X143798996Y-88275499D01*
X143851001Y-88275499D01*
X143918039Y-88295184D01*
X143963794Y-88347988D01*
X143975000Y-88399499D01*
X143975000Y-88850500D01*
X143955315Y-88917539D01*
X143902511Y-88963294D01*
X143851000Y-88974500D01*
X143799000Y-88974500D01*
X143731961Y-88954815D01*
X143686206Y-88902011D01*
X143675000Y-88850500D01*
X143675000Y-88775000D01*
X142600000Y-88775000D01*
X142600000Y-88822835D01*
X142604183Y-88861748D01*
X142604183Y-88888252D01*
X142600000Y-88927164D01*
X142600000Y-88975000D01*
X142601373Y-88975000D01*
X142614296Y-88978794D01*
X142627733Y-88977834D01*
X142647169Y-88988447D01*
X142668412Y-88994685D01*
X142677231Y-89004863D01*
X142689056Y-89011320D01*
X142699669Y-89030758D01*
X142714167Y-89047489D01*
X142716083Y-89060819D01*
X142722540Y-89072644D01*
X142720959Y-89094731D01*
X142724111Y-89116647D01*
X142718406Y-89130418D01*
X142717554Y-89142335D01*
X142700639Y-89173312D01*
X142661711Y-89225312D01*
X142613894Y-89261105D01*
X142600000Y-89275000D01*
X142600000Y-89322832D01*
X142603931Y-89359399D01*
X142603931Y-89385905D01*
X142599500Y-89427122D01*
X142599500Y-89822869D01*
X142599501Y-89822878D01*
X142603679Y-89861745D01*
X142603679Y-89888250D01*
X142599500Y-89927122D01*
X142599500Y-89927128D01*
X142599501Y-90251000D01*
X142579817Y-90318039D01*
X142572629Y-90328085D01*
X142473128Y-90453458D01*
X142449424Y-90470178D01*
X142427511Y-90489167D01*
X142421225Y-90490070D01*
X142416034Y-90493733D01*
X142387056Y-90494983D01*
X142358353Y-90499111D01*
X142352038Y-90496495D01*
X142346230Y-90496746D01*
X142330519Y-90487581D01*
X142301690Y-90475640D01*
X142249687Y-90436711D01*
X142213888Y-90388888D01*
X142200000Y-90375000D01*
X142152165Y-90375000D01*
X142115598Y-90378931D01*
X142089092Y-90378931D01*
X142047873Y-90374500D01*
X141652130Y-90374500D01*
X141652119Y-90374501D01*
X141613253Y-90378679D01*
X141586748Y-90378679D01*
X141547874Y-90374500D01*
X141152130Y-90374500D01*
X141152119Y-90374501D01*
X141113253Y-90378679D01*
X141086748Y-90378679D01*
X141047874Y-90374500D01*
X140652130Y-90374500D01*
X140652119Y-90374501D01*
X140613253Y-90378679D01*
X140586748Y-90378679D01*
X140547874Y-90374500D01*
X140152130Y-90374500D01*
X140152119Y-90374501D01*
X140113253Y-90378679D01*
X140097336Y-90379360D01*
X140092015Y-90379245D01*
X140047873Y-90374500D01*
X139871305Y-90374500D01*
X139869956Y-90374471D01*
X139837874Y-90364296D01*
X139805583Y-90354815D01*
X139804676Y-90353768D01*
X139803356Y-90353350D01*
X139781850Y-90327426D01*
X139759828Y-90302011D01*
X139759631Y-90300642D01*
X139758746Y-90299575D01*
X139754672Y-90266153D01*
X139750183Y-90234934D01*
X139749903Y-90234907D01*
X139750015Y-90233766D01*
X139749884Y-90232853D01*
X139750309Y-90230365D01*
X139750292Y-90230219D01*
X139750358Y-90230080D01*
X139750404Y-90229812D01*
X139750500Y-90228844D01*
X139750500Y-90071155D01*
X139750499Y-90071153D01*
X139739992Y-90018333D01*
X139719737Y-89916503D01*
X139680953Y-89822869D01*
X139659397Y-89770827D01*
X139659390Y-89770814D01*
X139571789Y-89639711D01*
X139571786Y-89639707D01*
X139460292Y-89528213D01*
X139460288Y-89528210D01*
X139329185Y-89440609D01*
X139329173Y-89440602D01*
X139204655Y-89389027D01*
X139184812Y-89380807D01*
X139151973Y-89358861D01*
X139151247Y-89359747D01*
X139146543Y-89355886D01*
X139031807Y-89279222D01*
X138904332Y-89226421D01*
X138904322Y-89226418D01*
X138768996Y-89199500D01*
X138768994Y-89199500D01*
X138768993Y-89199500D01*
X138674862Y-89199500D01*
X138607823Y-89179815D01*
X138562068Y-89127011D01*
X138552124Y-89057853D01*
X138553875Y-89048333D01*
X138586614Y-88902529D01*
X138594091Y-88882483D01*
X138600500Y-88822873D01*
X138600499Y-88427128D01*
X138600498Y-88427111D01*
X138596320Y-88388253D01*
X138596320Y-88361747D01*
X138600500Y-88322873D01*
X138600499Y-87927128D01*
X138600498Y-87927111D01*
X138596320Y-87888253D01*
X138596320Y-87861747D01*
X138600500Y-87822873D01*
X138600499Y-87427128D01*
X138600499Y-87427127D01*
X138600498Y-87427111D01*
X138596320Y-87388253D01*
X138596320Y-87361745D01*
X138600500Y-87322873D01*
X138600499Y-86927128D01*
X138600499Y-86927127D01*
X138600498Y-86927111D01*
X138596320Y-86888253D01*
X138596320Y-86861745D01*
X138600500Y-86822873D01*
X138600499Y-86499498D01*
X138620183Y-86432460D01*
X138672987Y-86386705D01*
X138724495Y-86375499D01*
X139047872Y-86375499D01*
X139047885Y-86375498D01*
X139086744Y-86371320D01*
X139113252Y-86371320D01*
X139152127Y-86375500D01*
G37*
G04 #@! TD.AperFunction*
G04 #@! TA.AperFunction,Conductor*
G36*
X135584074Y-88981685D02*
G01*
X135604716Y-88998318D01*
X135711918Y-89105520D01*
X135779401Y-89144481D01*
X135848849Y-89184577D01*
X135937360Y-89208293D01*
X135944737Y-89211329D01*
X135966014Y-89228394D01*
X135989303Y-89242590D01*
X135992871Y-89249936D01*
X135999241Y-89255045D01*
X136007912Y-89280900D01*
X136019832Y-89305437D01*
X136018862Y-89313546D01*
X136021459Y-89321288D01*
X136014775Y-89347731D01*
X136011537Y-89374813D01*
X136006338Y-89381109D01*
X136004337Y-89389027D01*
X135984415Y-89407660D01*
X135967052Y-89428690D01*
X135959274Y-89431176D01*
X135953310Y-89436755D01*
X135926479Y-89441659D01*
X135900500Y-89449965D01*
X135897549Y-89450000D01*
X135474000Y-89450000D01*
X135406961Y-89430315D01*
X135361206Y-89377511D01*
X135350000Y-89326000D01*
X135350000Y-89086000D01*
X135369685Y-89018961D01*
X135422489Y-88973206D01*
X135474000Y-88962000D01*
X135517035Y-88962000D01*
X135584074Y-88981685D01*
G37*
G04 #@! TD.AperFunction*
G04 #@! TA.AperFunction,Conductor*
G36*
X147020677Y-85882185D02*
G01*
X147041319Y-85898819D01*
X147055000Y-85912500D01*
X147626000Y-85912500D01*
X147693039Y-85932185D01*
X147738794Y-85984989D01*
X147750000Y-86036500D01*
X147750000Y-86162500D01*
X147876000Y-86162500D01*
X147943039Y-86182185D01*
X147988794Y-86234989D01*
X148000000Y-86286500D01*
X148000000Y-87149999D01*
X148025500Y-87149999D01*
X148092539Y-87169684D01*
X148138294Y-87222488D01*
X148149500Y-87273999D01*
X148149500Y-87983481D01*
X148129815Y-88050520D01*
X148113181Y-88071162D01*
X147010871Y-89173471D01*
X146949548Y-89206956D01*
X146879856Y-89201972D01*
X146823923Y-89160100D01*
X146799506Y-89094636D01*
X146814358Y-89026363D01*
X146817652Y-89020692D01*
X146860450Y-88951307D01*
X146860453Y-88951300D01*
X146914680Y-88787652D01*
X146924999Y-88686654D01*
X146925000Y-88686641D01*
X146925000Y-88587500D01*
X146074000Y-88587500D01*
X146006961Y-88567815D01*
X145961206Y-88515011D01*
X145950000Y-88463500D01*
X145950000Y-88337500D01*
X145824000Y-88337500D01*
X145756961Y-88317815D01*
X145711206Y-88265011D01*
X145700000Y-88213500D01*
X145700000Y-87289458D01*
X145679195Y-87251360D01*
X145684178Y-87181668D01*
X145697755Y-87160541D01*
X146200000Y-87160541D01*
X146220804Y-87198641D01*
X146215820Y-87268333D01*
X146200000Y-87292949D01*
X146200000Y-88087500D01*
X146924999Y-88087500D01*
X146924999Y-87988360D01*
X146924998Y-87988345D01*
X146914680Y-87887347D01*
X146860453Y-87723699D01*
X146860448Y-87723688D01*
X146769947Y-87576965D01*
X146769944Y-87576961D01*
X146648038Y-87455055D01*
X146648034Y-87455052D01*
X146501311Y-87364551D01*
X146501300Y-87364546D01*
X146435389Y-87342706D01*
X146377944Y-87302934D01*
X146351121Y-87238418D01*
X146363436Y-87169642D01*
X146410979Y-87118442D01*
X146435389Y-87107294D01*
X146501300Y-87085453D01*
X146501311Y-87085448D01*
X146648034Y-86994947D01*
X146648038Y-86994944D01*
X146762319Y-86880664D01*
X146823642Y-86847179D01*
X146893334Y-86852163D01*
X146937681Y-86880664D01*
X147051961Y-86994944D01*
X147051965Y-86994947D01*
X147198688Y-87085448D01*
X147198699Y-87085453D01*
X147362347Y-87139680D01*
X147463352Y-87149999D01*
X147500000Y-87149999D01*
X147500000Y-86412500D01*
X146746362Y-86412500D01*
X146679323Y-86392815D01*
X146658681Y-86376181D01*
X146645000Y-86362500D01*
X146200000Y-86362500D01*
X146200000Y-87160541D01*
X145697755Y-87160541D01*
X145700000Y-87157048D01*
X145700000Y-86236500D01*
X145719685Y-86169461D01*
X145772489Y-86123706D01*
X145824000Y-86112500D01*
X145950000Y-86112500D01*
X145950000Y-85986500D01*
X145969685Y-85919461D01*
X146022489Y-85873706D01*
X146074000Y-85862500D01*
X146953638Y-85862500D01*
X147020677Y-85882185D01*
G37*
G04 #@! TD.AperFunction*
G04 #@! TA.AperFunction,Conductor*
G36*
X123684075Y-74607007D02*
G01*
X123650000Y-74734174D01*
X123650000Y-74865826D01*
X123684075Y-74992993D01*
X123716988Y-75050000D01*
X122043012Y-75050000D01*
X122075925Y-74992993D01*
X122110000Y-74865826D01*
X122110000Y-74734174D01*
X122075925Y-74607007D01*
X122043012Y-74550000D01*
X123716988Y-74550000D01*
X123684075Y-74607007D01*
G37*
G04 #@! TD.AperFunction*
G04 #@! TD*
M02*
