%TF.GenerationSoftware,KiCad,Pcbnew,9.0.0-9.0.0-2~ubuntu22.04.1*%
%TF.CreationDate,2025-04-11T17:55:25+02:00*%
%TF.ProjectId,sensor,73656e73-6f72-42e6-9b69-6361645f7063,rev?*%
%TF.SameCoordinates,Original*%
%TF.FileFunction,Copper,L1,Top*%
%TF.FilePolarity,Positive*%
%FSLAX46Y46*%
G04 Gerber Fmt 4.6, Leading zero omitted, Abs format (unit mm)*
G04 Created by KiCad (PCBNEW 9.0.0-9.0.0-2~ubuntu22.04.1) date 2025-04-11 17:55:25*
%MOMM*%
%LPD*%
G01*
G04 APERTURE LIST*
%TA.AperFunction,Conductor*%
%ADD10C,0.200000*%
%TD*%
%TA.AperFunction,Conductor*%
%ADD11C,0.150000*%
%TD*%
G04 APERTURE END LIST*
%TO.N,sens*%
D10*
X132500000Y-90500000D02*
X136500000Y-90500000D01*
X136500000Y-94500000D01*
X132500000Y-94500000D01*
X132500000Y-90500000D01*
%TA.AperFunction,Conductor*%
G36*
X132500000Y-90500000D02*
G01*
X136500000Y-90500000D01*
X136500000Y-94500000D01*
X132500000Y-94500000D01*
X132500000Y-90500000D01*
G37*
%TD.AperFunction*%
X123000000Y-90500000D02*
X127000000Y-90500000D01*
X127000000Y-94500000D01*
X123000000Y-94500000D01*
X123000000Y-90500000D01*
%TA.AperFunction,Conductor*%
G36*
X123000000Y-90500000D02*
G01*
X127000000Y-90500000D01*
X127000000Y-94500000D01*
X123000000Y-94500000D01*
X123000000Y-90500000D01*
G37*
%TD.AperFunction*%
%TD*%
D11*
%TO.N,sens*%
X130000000Y-80000000D02*
X130000000Y-90000000D01*
X131500000Y-90000000D02*
X131500000Y-80000000D01*
X128500000Y-80000000D02*
X128000000Y-80000000D01*
X132500000Y-80000000D02*
X132000000Y-80000000D01*
X129000000Y-90000000D02*
X128500000Y-90000000D01*
X129000000Y-80000000D02*
X129000000Y-90000000D01*
X134500000Y-92500000D02*
X134500000Y-80000000D01*
X127000000Y-90000000D02*
X126500000Y-90000000D01*
X131000000Y-90000000D02*
X130500000Y-90000000D01*
X130500000Y-80000000D02*
X130000000Y-80000000D01*
X134000000Y-90000000D02*
X133500000Y-90000000D01*
X132000000Y-80000000D02*
X132000000Y-90000000D01*
X127000000Y-80000000D02*
X127000000Y-90000000D01*
X133500000Y-90000000D02*
X133500000Y-80000000D01*
X125500000Y-80000000D02*
X125000000Y-80000000D01*
X130000000Y-90000000D02*
X129500000Y-90000000D01*
X129500000Y-90000000D02*
X129500000Y-80000000D01*
X126000000Y-80000000D02*
X126000000Y-90000000D01*
X125000000Y-80000000D02*
X125000000Y-92500000D01*
X132500000Y-90000000D02*
X132500000Y-80000000D01*
X134000000Y-80000000D02*
X134000000Y-90000000D01*
X129500000Y-80000000D02*
X129000000Y-80000000D01*
X133500000Y-80000000D02*
X133000000Y-80000000D01*
X125500000Y-90000000D02*
X125500000Y-80000000D01*
X132000000Y-90000000D02*
X131500000Y-90000000D01*
X126500000Y-90000000D02*
X126500000Y-80000000D01*
X128000000Y-80000000D02*
X128000000Y-90000000D01*
X128500000Y-90000000D02*
X128500000Y-80000000D01*
X128000000Y-90000000D02*
X127500000Y-90000000D01*
X131000000Y-80000000D02*
X131000000Y-90000000D01*
X126000000Y-90000000D02*
X125500000Y-90000000D01*
X126500000Y-80000000D02*
X126000000Y-80000000D01*
X127500000Y-90000000D02*
X127500000Y-80000000D01*
X134500000Y-80000000D02*
X134000000Y-80000000D01*
X127500000Y-80000000D02*
X127000000Y-80000000D01*
X131500000Y-80000000D02*
X131000000Y-80000000D01*
X133000000Y-90000000D02*
X132500000Y-90000000D01*
X133000000Y-80000000D02*
X133000000Y-90000000D01*
X130500000Y-90000000D02*
X130500000Y-80000000D01*
%TD*%
M02*
